<svg xmlns="http://www.w3.org/2000/svg" xmlns:xlink="http://www.w3.org/1999/xlink" width="192" zoomAndPan="magnify" viewBox="0 0 144 38.249999" height="51" preserveAspectRatio="xMidYMid meet" version="1.0"><defs><g/><clipPath id="9fbd0c73a1"><path d="M 44.359375 27.871094 L 50.476562 27.871094 L 50.476562 33.992188 L 44.359375 33.992188 Z M 44.359375 27.871094 " clip-rule="nonzero"/></clipPath><clipPath id="62bf879c0d"><path d="M 115.167969 6 L 121.285156 6 L 121.285156 12.101562 L 115.167969 12.101562 Z M 115.167969 6 " clip-rule="nonzero"/></clipPath><clipPath id="653c02f2ef"><path d="M 112 2 L 116.316406 2 L 116.316406 6.152344 L 112 6.152344 Z M 112 2 " clip-rule="nonzero"/></clipPath><clipPath id="386d01cb75"><path d="M 66.589844 6.335938 L 70.960938 6.335938 L 70.960938 10.707031 L 66.589844 10.707031 Z M 66.589844 6.335938 " clip-rule="nonzero"/></clipPath><clipPath id="1aa0820bf1"><path d="M 4.28125 0.394531 L 41 0.394531 L 41 37 L 4.28125 37 Z M 4.28125 0.394531 " clip-rule="nonzero"/></clipPath></defs><g fill="#2c3c86" fill-opacity="1"><g transform="translate(48.420202, 27.615427)"><g><path d="M 11.921875 -8.28125 C 12.023438 -8.4375 12.144531 -8.492188 12.28125 -8.453125 C 12.425781 -8.421875 12.5 -8.328125 12.5 -8.171875 C 12.5 -8.117188 12.472656 -7.914062 12.421875 -7.5625 C 12.378906 -7.207031 12.328125 -6.796875 12.265625 -6.328125 C 12.210938 -5.867188 12.160156 -5.425781 12.109375 -5 C 12.054688 -4.570312 12.019531 -4.265625 12 -4.078125 C 11.976562 -3.796875 11.910156 -3.59375 11.796875 -3.46875 C 11.691406 -3.351562 11.507812 -3.296875 11.25 -3.296875 L 1.28125 -3.296875 C 0.96875 -3.296875 0.734375 -3.414062 0.578125 -3.65625 C 0.429688 -3.894531 0.488281 -4.132812 0.75 -4.375 C 1.289062 -4.894531 1.828125 -5.566406 2.359375 -6.390625 C 2.890625 -7.222656 3.398438 -8.132812 3.890625 -9.125 C 4.378906 -10.113281 4.828125 -11.097656 5.234375 -12.078125 C 5.648438 -13.066406 6.015625 -13.960938 6.328125 -14.765625 C 6.648438 -15.578125 6.894531 -16.226562 7.0625 -16.71875 L 6.75 -16.71875 C 6.132812 -16.71875 5.617188 -16.476562 5.203125 -16 C 4.785156 -15.53125 4.378906 -14.941406 3.984375 -14.234375 C 3.722656 -13.785156 3.375 -13.484375 2.9375 -13.328125 C 2.5 -13.179688 2.050781 -13.171875 1.59375 -13.296875 C 1.144531 -13.421875 0.765625 -13.648438 0.453125 -13.984375 C 0.148438 -14.316406 0 -14.734375 0 -15.234375 C 0 -15.703125 0.148438 -16.101562 0.453125 -16.4375 C 0.765625 -16.769531 1.15625 -17.03125 1.625 -17.21875 C 2.101562 -17.40625 2.582031 -17.5 3.0625 -17.5 L 11.5 -17.5 C 12.113281 -17.5 12.289062 -17.144531 12.03125 -16.4375 C 11.632812 -15.351562 11.164062 -14.109375 10.625 -12.703125 C 10.09375 -11.304688 9.453125 -9.859375 8.703125 -8.359375 C 7.960938 -6.859375 7.082031 -5.429688 6.0625 -4.078125 L 7.421875 -4.078125 C 7.847656 -4.078125 8.289062 -4.242188 8.75 -4.578125 C 9.207031 -4.910156 9.640625 -5.316406 10.046875 -5.796875 C 10.453125 -6.285156 10.816406 -6.757812 11.140625 -7.21875 C 11.472656 -7.6875 11.734375 -8.039062 11.921875 -8.28125 Z M 11.921875 -8.28125 "/></g></g></g><g fill="#2c3c86" fill-opacity="1"><g transform="translate(60.252072, 27.615427)"><g><path d="M 9.9375 -6.5 C 10.082031 -6.6875 10.238281 -6.703125 10.40625 -6.546875 C 10.570312 -6.390625 10.609375 -6.234375 10.515625 -6.078125 C 10.054688 -5.265625 9.390625 -4.597656 8.515625 -4.078125 C 7.640625 -3.554688 6.660156 -3.296875 5.578125 -3.296875 C 4.554688 -3.296875 3.617188 -3.523438 2.765625 -3.984375 C 1.921875 -4.453125 1.25 -5.078125 0.75 -5.859375 C 0.25 -6.640625 0 -7.503906 0 -8.453125 C 0 -9.398438 0.25 -10.265625 0.75 -11.046875 C 1.25 -11.828125 1.9375 -12.453125 2.8125 -12.921875 C 3.6875 -13.390625 4.679688 -13.625 5.796875 -13.625 C 6.523438 -13.625 7.238281 -13.472656 7.9375 -13.171875 C 8.632812 -12.867188 9.207031 -12.46875 9.65625 -11.96875 C 10.101562 -11.46875 10.328125 -10.910156 10.328125 -10.296875 C 10.328125 -9.703125 10.144531 -9.148438 9.78125 -8.640625 C 9.414062 -8.140625 8.9375 -7.738281 8.34375 -7.4375 C 7.75 -7.144531 7.085938 -7 6.359375 -7 C 6.003906 -7 5.664062 -7.035156 5.34375 -7.109375 C 5.019531 -7.191406 4.707031 -7.296875 4.40625 -7.421875 C 4.550781 -6.953125 4.78125 -6.535156 5.09375 -6.171875 C 5.414062 -5.816406 5.859375 -5.554688 6.421875 -5.390625 C 6.773438 -5.296875 7.171875 -5.269531 7.609375 -5.3125 C 8.054688 -5.363281 8.488281 -5.488281 8.90625 -5.6875 C 9.332031 -5.894531 9.675781 -6.164062 9.9375 -6.5 Z M 5.671875 -12.84375 C 5.441406 -12.84375 5.15625 -12.625 4.8125 -12.1875 C 4.46875 -11.75 4.296875 -11.082031 4.296875 -10.1875 C 4.296875 -9.4375 4.4375 -8.847656 4.71875 -8.421875 C 5.007812 -7.992188 5.328125 -7.78125 5.671875 -7.78125 C 6.035156 -7.78125 6.335938 -8.023438 6.578125 -8.515625 C 6.828125 -9.015625 6.953125 -9.609375 6.953125 -10.296875 C 6.953125 -11.003906 6.828125 -11.601562 6.578125 -12.09375 C 6.335938 -12.59375 6.035156 -12.84375 5.671875 -12.84375 Z M 5.671875 -12.84375 "/></g></g></g><g fill="#2c3c86" fill-opacity="1"><g transform="translate(70.214259, 27.615427)"><g><path d="M 13.5625 -3.875 C 13.707031 -3.769531 13.757812 -3.644531 13.71875 -3.5 C 13.6875 -3.363281 13.597656 -3.296875 13.453125 -3.296875 L 7.890625 -3.296875 C 7.597656 -3.296875 7.445312 -3.378906 7.4375 -3.546875 C 7.425781 -3.710938 7.488281 -3.859375 7.625 -3.984375 C 7.976562 -4.304688 8.234375 -4.796875 8.390625 -5.453125 C 8.546875 -6.117188 8.617188 -6.84375 8.609375 -7.625 C 8.597656 -8.40625 8.507812 -9.148438 8.34375 -9.859375 C 8.175781 -10.578125 7.953125 -11.164062 7.671875 -11.625 C 7.390625 -12.09375 7.054688 -12.328125 6.671875 -12.328125 C 6.390625 -12.328125 6.113281 -12.144531 5.84375 -11.78125 C 5.570312 -11.425781 5.316406 -10.976562 5.078125 -10.4375 C 4.929688 -8.664062 4.945312 -7.226562 5.125 -6.125 C 5.300781 -5.019531 5.59375 -4.304688 6 -3.984375 C 6.144531 -3.878906 6.207031 -3.738281 6.1875 -3.5625 C 6.175781 -3.382812 6.019531 -3.296875 5.71875 -3.296875 L 0.28125 -3.296875 C 0.144531 -3.296875 0.0546875 -3.363281 0.015625 -3.5 C -0.015625 -3.644531 0.0351562 -3.769531 0.171875 -3.875 C 0.648438 -4.25 0.957031 -4.609375 1.09375 -4.953125 C 1.238281 -5.296875 1.3125 -5.726562 1.3125 -6.25 L 1.3125 -8.59375 C 1.3125 -9.113281 1.238281 -9.550781 1.09375 -9.90625 C 0.957031 -10.257812 0.648438 -10.625 0.171875 -11 C 0.0351562 -11.101562 -0.015625 -11.21875 0.015625 -11.34375 C 0.0546875 -11.476562 0.144531 -11.546875 0.28125 -11.546875 C 0.945312 -11.546875 1.523438 -11.640625 2.015625 -11.828125 C 2.515625 -12.015625 2.945312 -12.234375 3.3125 -12.484375 C 3.6875 -12.734375 4.019531 -12.960938 4.3125 -13.171875 C 4.601562 -13.390625 4.878906 -13.53125 5.140625 -13.59375 C 5.429688 -13.644531 5.550781 -13.585938 5.5 -13.421875 C 5.457031 -13.253906 5.421875 -13.078125 5.390625 -12.890625 L 5.296875 -12.3125 C 5.578125 -12.675781 5.898438 -12.984375 6.265625 -13.234375 C 6.628906 -13.492188 7.035156 -13.625 7.484375 -13.625 C 8.484375 -13.625 9.347656 -13.375 10.078125 -12.875 C 10.816406 -12.382812 11.390625 -11.71875 11.796875 -10.875 C 12.210938 -10.039062 12.421875 -9.113281 12.421875 -8.09375 L 12.421875 -6.25 C 12.421875 -5.726562 12.488281 -5.296875 12.625 -4.953125 C 12.769531 -4.609375 13.082031 -4.25 13.5625 -3.875 Z M 13.5625 -3.875 "/></g></g></g><g fill="#2c3c86" fill-opacity="1"><g transform="translate(83.413509, 27.615427)"><g/></g></g><g fill="#2c3c86" fill-opacity="1"><g transform="translate(86.929469, 27.615427)"><g><path d="M 7.640625 -11.640625 C 8.179688 -11.265625 8.707031 -10.875 9.21875 -10.46875 C 9.726562 -10.070312 10.164062 -9.644531 10.53125 -9.1875 C 10.894531 -8.738281 11.113281 -8.234375 11.1875 -7.671875 C 11.300781 -6.960938 11.148438 -6.273438 10.734375 -5.609375 C 10.316406 -4.953125 9.71875 -4.414062 8.9375 -4 C 8.15625 -3.582031 7.25 -3.359375 6.21875 -3.328125 L 6.140625 -3.328125 C 5.335938 -3.304688 4.679688 -3.390625 4.171875 -3.578125 C 3.660156 -3.773438 3.15625 -3.953125 2.65625 -4.109375 C 2.351562 -4.191406 2.046875 -4.164062 1.734375 -4.03125 C 1.429688 -3.894531 1.148438 -3.742188 0.890625 -3.578125 C 0.628906 -3.410156 0.414062 -3.316406 0.25 -3.296875 C 0.0820312 -3.273438 0 -3.414062 0 -3.71875 L 0 -8.015625 C 0 -8.398438 0.09375 -8.617188 0.28125 -8.671875 C 0.46875 -8.734375 0.679688 -8.566406 0.921875 -8.171875 C 1.941406 -6.671875 2.898438 -5.601562 3.796875 -4.96875 C 4.691406 -4.332031 5.441406 -4.039062 6.046875 -4.09375 C 6.648438 -4.15625 7.023438 -4.460938 7.171875 -5.015625 C 7.304688 -5.484375 7.238281 -5.90625 6.96875 -6.28125 C 6.695312 -6.65625 6.300781 -7.015625 5.78125 -7.359375 C 5.257812 -7.703125 4.6875 -8.050781 4.0625 -8.40625 C 3.4375 -8.769531 2.832031 -9.164062 2.25 -9.59375 C 1.664062 -10.019531 1.171875 -10.507812 0.765625 -11.0625 C 0.367188 -11.613281 0.140625 -12.242188 0.078125 -12.953125 C -0.046875 -14.378906 0.363281 -15.484375 1.3125 -16.265625 C 2.257812 -17.046875 3.503906 -17.457031 5.046875 -17.5 L 5.140625 -17.5 C 5.878906 -17.519531 6.628906 -17.441406 7.390625 -17.265625 C 8.160156 -17.097656 8.847656 -16.820312 9.453125 -16.4375 C 10.054688 -16.0625 10.488281 -15.566406 10.75 -14.953125 C 10.988281 -14.359375 10.984375 -13.878906 10.734375 -13.515625 C 10.492188 -13.148438 10.128906 -12.898438 9.640625 -12.765625 C 9.148438 -12.628906 8.640625 -12.625 8.109375 -12.75 C 7.578125 -12.882812 7.128906 -13.144531 6.765625 -13.53125 C 6.398438 -13.925781 6.25 -14.457031 6.3125 -15.125 C 6.34375 -15.644531 6.257812 -16.03125 6.0625 -16.28125 C 5.875 -16.53125 5.632812 -16.671875 5.34375 -16.703125 C 5.050781 -16.734375 4.785156 -16.660156 4.546875 -16.484375 C 4.304688 -16.316406 4.160156 -16.078125 4.109375 -15.765625 C 4.015625 -15.191406 4.140625 -14.664062 4.484375 -14.1875 C 4.835938 -13.71875 5.300781 -13.273438 5.875 -12.859375 C 6.457031 -12.453125 7.046875 -12.046875 7.640625 -11.640625 Z M 7.640625 -11.640625 "/></g></g></g><g fill="#2c3c86" fill-opacity="1"><g transform="translate(97.505575, 27.615427)"><g><path d="M 6.859375 -12.390625 C 7.046875 -12.390625 7.171875 -12.320312 7.234375 -12.1875 C 7.304688 -12.0625 7.34375 -11.90625 7.34375 -11.71875 C 7.34375 -11.53125 7.304688 -11.367188 7.234375 -11.234375 C 7.171875 -11.109375 7.046875 -11.046875 6.859375 -11.046875 L 5.5 -11.046875 C 5.4375 -9.859375 5.445312 -8.757812 5.53125 -7.75 C 5.625 -6.75 5.757812 -5.921875 5.9375 -5.265625 C 6.125 -4.617188 6.335938 -4.191406 6.578125 -3.984375 C 6.734375 -3.878906 6.800781 -3.738281 6.78125 -3.5625 C 6.757812 -3.382812 6.59375 -3.296875 6.28125 -3.296875 L 0.640625 -3.296875 C 0.453125 -3.296875 0.359375 -3.378906 0.359375 -3.546875 C 0.359375 -3.710938 0.425781 -3.859375 0.5625 -3.984375 C 0.875 -4.285156 1.085938 -4.6875 1.203125 -5.1875 C 1.328125 -5.6875 1.398438 -6.207031 1.421875 -6.75 C 1.441406 -7.289062 1.453125 -7.757812 1.453125 -8.15625 C 1.453125 -8.519531 1.441406 -8.976562 1.421875 -9.53125 C 1.398438 -10.082031 1.289062 -10.585938 1.09375 -11.046875 L 0.46875 -11.046875 C 0.289062 -11.046875 0.164062 -11.109375 0.09375 -11.234375 C 0.03125 -11.367188 0 -11.53125 0 -11.71875 C 0 -11.90625 0.03125 -12.0625 0.09375 -12.1875 C 0.164062 -12.320312 0.289062 -12.390625 0.46875 -12.390625 L 0.640625 -12.390625 C 1.304688 -12.390625 1.863281 -12.539062 2.3125 -12.84375 C 2.757812 -13.15625 3.132812 -13.519531 3.4375 -13.9375 C 3.75 -14.351562 4.039062 -14.742188 4.3125 -15.109375 C 4.582031 -15.472656 4.882812 -15.710938 5.21875 -15.828125 C 5.5 -15.929688 5.703125 -15.90625 5.828125 -15.75 C 5.960938 -15.59375 6.007812 -15.421875 5.96875 -15.234375 C 5.894531 -14.753906 5.820312 -14.273438 5.75 -13.796875 C 5.675781 -13.328125 5.617188 -12.859375 5.578125 -12.390625 Z M 6.859375 -12.390625 "/></g></g></g><g fill="#2c3c86" fill-opacity="1"><g transform="translate(104.174884, 27.615427)"><g><path d="M 5.578125 -13.625 C 6.597656 -13.625 7.523438 -13.390625 8.359375 -12.921875 C 9.203125 -12.453125 9.875 -11.828125 10.375 -11.046875 C 10.882812 -10.265625 11.140625 -9.398438 11.140625 -8.453125 C 11.140625 -7.503906 10.882812 -6.640625 10.375 -5.859375 C 9.875 -5.078125 9.203125 -4.453125 8.359375 -3.984375 C 7.523438 -3.523438 6.597656 -3.296875 5.578125 -3.296875 C 4.554688 -3.296875 3.617188 -3.523438 2.765625 -3.984375 C 1.921875 -4.453125 1.25 -5.078125 0.75 -5.859375 C 0.25 -6.640625 0 -7.503906 0 -8.453125 C 0 -9.398438 0.25 -10.265625 0.75 -11.046875 C 1.25 -11.828125 1.921875 -12.453125 2.765625 -12.921875 C 3.617188 -13.390625 4.554688 -13.625 5.578125 -13.625 Z M 5.578125 -4.078125 C 5.878906 -4.078125 6.144531 -4.273438 6.375 -4.671875 C 6.601562 -5.078125 6.789062 -5.609375 6.9375 -6.265625 C 7.09375 -6.921875 7.171875 -7.648438 7.171875 -8.453125 C 7.171875 -9.273438 7.09375 -10.015625 6.9375 -10.671875 C 6.789062 -11.335938 6.601562 -11.863281 6.375 -12.25 C 6.144531 -12.644531 5.878906 -12.84375 5.578125 -12.84375 C 5.285156 -12.84375 5.015625 -12.644531 4.765625 -12.25 C 4.523438 -11.863281 4.332031 -11.335938 4.1875 -10.671875 C 4.039062 -10.015625 3.96875 -9.273438 3.96875 -8.453125 C 3.96875 -7.648438 4.039062 -6.921875 4.1875 -6.265625 C 4.332031 -5.609375 4.523438 -5.078125 4.765625 -4.671875 C 5.015625 -4.273438 5.285156 -4.078125 5.578125 -4.078125 Z M 5.578125 -4.078125 "/></g></g></g><g fill="#2c3c86" fill-opacity="1"><g transform="translate(114.862619, 27.615427)"><g><path d="M 8.484375 -13.625 C 9.023438 -13.625 9.578125 -13.476562 10.140625 -13.1875 C 10.710938 -12.894531 11.050781 -12.453125 11.15625 -11.859375 C 11.269531 -11.316406 11.203125 -10.859375 10.953125 -10.484375 C 10.703125 -10.117188 10.367188 -9.832031 9.953125 -9.625 C 9.535156 -9.425781 9.109375 -9.316406 8.671875 -9.296875 C 8.242188 -9.273438 7.894531 -9.363281 7.625 -9.5625 C 7.363281 -9.769531 7.257812 -10.085938 7.3125 -10.515625 C 7.363281 -10.835938 7.414062 -11.113281 7.46875 -11.34375 C 7.53125 -11.570312 7.429688 -11.6875 7.171875 -11.6875 C 6.835938 -11.6875 6.457031 -11.472656 6.03125 -11.046875 C 5.613281 -10.617188 5.273438 -10.15625 5.015625 -9.65625 C 4.929688 -8.113281 4.972656 -6.859375 5.140625 -5.890625 C 5.316406 -4.921875 5.601562 -4.285156 6 -3.984375 C 6.144531 -3.878906 6.207031 -3.738281 6.1875 -3.5625 C 6.175781 -3.382812 6.019531 -3.296875 5.71875 -3.296875 L 0.28125 -3.296875 C 0.144531 -3.296875 0.0546875 -3.363281 0.015625 -3.5 C -0.015625 -3.644531 0.0351562 -3.769531 0.171875 -3.875 C 0.648438 -4.25 0.957031 -4.609375 1.09375 -4.953125 C 1.238281 -5.296875 1.3125 -5.726562 1.3125 -6.25 L 1.3125 -8.59375 C 1.3125 -9.113281 1.238281 -9.550781 1.09375 -9.90625 C 0.957031 -10.257812 0.648438 -10.625 0.171875 -11 C 0.0351562 -11.101562 -0.015625 -11.21875 0.015625 -11.34375 C 0.0546875 -11.476562 0.144531 -11.546875 0.28125 -11.546875 C 0.945312 -11.546875 1.523438 -11.640625 2.015625 -11.828125 C 2.515625 -12.015625 2.945312 -12.234375 3.3125 -12.484375 C 3.6875 -12.734375 4.019531 -12.960938 4.3125 -13.171875 C 4.601562 -13.390625 4.878906 -13.53125 5.140625 -13.59375 C 5.429688 -13.644531 5.550781 -13.585938 5.5 -13.421875 C 5.457031 -13.253906 5.421875 -13.078125 5.390625 -12.890625 L 5.15625 -11.078125 C 5.382812 -11.390625 5.664062 -11.742188 6 -12.140625 C 6.332031 -12.546875 6.710938 -12.894531 7.140625 -13.1875 C 7.566406 -13.476562 8.015625 -13.625 8.484375 -13.625 Z M 8.484375 -13.625 "/></g></g></g><g fill="#2c3c86" fill-opacity="1"><g transform="translate(125.382923, 27.615427)"><g><path d="M 9.9375 -6.5 C 10.082031 -6.6875 10.238281 -6.703125 10.40625 -6.546875 C 10.570312 -6.390625 10.609375 -6.234375 10.515625 -6.078125 C 10.054688 -5.265625 9.390625 -4.597656 8.515625 -4.078125 C 7.640625 -3.554688 6.660156 -3.296875 5.578125 -3.296875 C 4.554688 -3.296875 3.617188 -3.523438 2.765625 -3.984375 C 1.921875 -4.453125 1.25 -5.078125 0.75 -5.859375 C 0.25 -6.640625 0 -7.503906 0 -8.453125 C 0 -9.398438 0.25 -10.265625 0.75 -11.046875 C 1.25 -11.828125 1.9375 -12.453125 2.8125 -12.921875 C 3.6875 -13.390625 4.679688 -13.625 5.796875 -13.625 C 6.523438 -13.625 7.238281 -13.472656 7.9375 -13.171875 C 8.632812 -12.867188 9.207031 -12.46875 9.65625 -11.96875 C 10.101562 -11.46875 10.328125 -10.910156 10.328125 -10.296875 C 10.328125 -9.703125 10.144531 -9.148438 9.78125 -8.640625 C 9.414062 -8.140625 8.9375 -7.738281 8.34375 -7.4375 C 7.75 -7.144531 7.085938 -7 6.359375 -7 C 6.003906 -7 5.664062 -7.035156 5.34375 -7.109375 C 5.019531 -7.191406 4.707031 -7.296875 4.40625 -7.421875 C 4.550781 -6.953125 4.78125 -6.535156 5.09375 -6.171875 C 5.414062 -5.816406 5.859375 -5.554688 6.421875 -5.390625 C 6.773438 -5.296875 7.171875 -5.269531 7.609375 -5.3125 C 8.054688 -5.363281 8.488281 -5.488281 8.90625 -5.6875 C 9.332031 -5.894531 9.675781 -6.164062 9.9375 -6.5 Z M 5.671875 -12.84375 C 5.441406 -12.84375 5.15625 -12.625 4.8125 -12.1875 C 4.46875 -11.75 4.296875 -11.082031 4.296875 -10.1875 C 4.296875 -9.4375 4.4375 -8.847656 4.71875 -8.421875 C 5.007812 -7.992188 5.328125 -7.78125 5.671875 -7.78125 C 6.035156 -7.78125 6.335938 -8.023438 6.578125 -8.515625 C 6.828125 -9.015625 6.953125 -9.609375 6.953125 -10.296875 C 6.953125 -11.003906 6.828125 -11.601562 6.578125 -12.09375 C 6.335938 -12.59375 6.035156 -12.84375 5.671875 -12.84375 Z M 5.671875 -12.84375 "/></g></g></g><g fill="#5271ff" fill-opacity="1"><g transform="translate(47.664871, 27.179336)"><g><path d="M 11.921875 -8.28125 C 12.023438 -8.4375 12.144531 -8.492188 12.28125 -8.453125 C 12.425781 -8.421875 12.5 -8.328125 12.5 -8.171875 C 12.5 -8.117188 12.472656 -7.914062 12.421875 -7.5625 C 12.378906 -7.207031 12.328125 -6.796875 12.265625 -6.328125 C 12.210938 -5.867188 12.160156 -5.425781 12.109375 -5 C 12.054688 -4.570312 12.019531 -4.265625 12 -4.078125 C 11.976562 -3.796875 11.910156 -3.59375 11.796875 -3.46875 C 11.691406 -3.351562 11.507812 -3.296875 11.25 -3.296875 L 1.28125 -3.296875 C 0.96875 -3.296875 0.734375 -3.414062 0.578125 -3.65625 C 0.429688 -3.894531 0.488281 -4.132812 0.75 -4.375 C 1.289062 -4.894531 1.828125 -5.566406 2.359375 -6.390625 C 2.890625 -7.222656 3.398438 -8.132812 3.890625 -9.125 C 4.378906 -10.113281 4.828125 -11.097656 5.234375 -12.078125 C 5.648438 -13.066406 6.015625 -13.960938 6.328125 -14.765625 C 6.648438 -15.578125 6.894531 -16.226562 7.0625 -16.71875 L 6.75 -16.71875 C 6.132812 -16.71875 5.617188 -16.476562 5.203125 -16 C 4.785156 -15.53125 4.378906 -14.941406 3.984375 -14.234375 C 3.722656 -13.785156 3.375 -13.484375 2.9375 -13.328125 C 2.5 -13.179688 2.050781 -13.171875 1.59375 -13.296875 C 1.144531 -13.421875 0.765625 -13.648438 0.453125 -13.984375 C 0.148438 -14.316406 0 -14.734375 0 -15.234375 C 0 -15.703125 0.148438 -16.101562 0.453125 -16.4375 C 0.765625 -16.769531 1.15625 -17.03125 1.625 -17.21875 C 2.101562 -17.40625 2.582031 -17.5 3.0625 -17.5 L 11.5 -17.5 C 12.113281 -17.5 12.289062 -17.144531 12.03125 -16.4375 C 11.632812 -15.351562 11.164062 -14.109375 10.625 -12.703125 C 10.09375 -11.304688 9.453125 -9.859375 8.703125 -8.359375 C 7.960938 -6.859375 7.082031 -5.429688 6.0625 -4.078125 L 7.421875 -4.078125 C 7.847656 -4.078125 8.289062 -4.242188 8.75 -4.578125 C 9.207031 -4.910156 9.640625 -5.316406 10.046875 -5.796875 C 10.453125 -6.285156 10.816406 -6.757812 11.140625 -7.21875 C 11.472656 -7.6875 11.734375 -8.039062 11.921875 -8.28125 Z M 11.921875 -8.28125 "/></g></g></g><g fill="#5271ff" fill-opacity="1"><g transform="translate(59.496742, 27.179336)"><g><path d="M 9.9375 -6.5 C 10.082031 -6.6875 10.238281 -6.703125 10.40625 -6.546875 C 10.570312 -6.390625 10.609375 -6.234375 10.515625 -6.078125 C 10.054688 -5.265625 9.390625 -4.597656 8.515625 -4.078125 C 7.640625 -3.554688 6.660156 -3.296875 5.578125 -3.296875 C 4.554688 -3.296875 3.617188 -3.523438 2.765625 -3.984375 C 1.921875 -4.453125 1.25 -5.078125 0.75 -5.859375 C 0.25 -6.640625 0 -7.503906 0 -8.453125 C 0 -9.398438 0.25 -10.265625 0.75 -11.046875 C 1.25 -11.828125 1.9375 -12.453125 2.8125 -12.921875 C 3.6875 -13.390625 4.679688 -13.625 5.796875 -13.625 C 6.523438 -13.625 7.238281 -13.472656 7.9375 -13.171875 C 8.632812 -12.867188 9.207031 -12.46875 9.65625 -11.96875 C 10.101562 -11.46875 10.328125 -10.910156 10.328125 -10.296875 C 10.328125 -9.703125 10.144531 -9.148438 9.78125 -8.640625 C 9.414062 -8.140625 8.9375 -7.738281 8.34375 -7.4375 C 7.75 -7.144531 7.085938 -7 6.359375 -7 C 6.003906 -7 5.664062 -7.035156 5.34375 -7.109375 C 5.019531 -7.191406 4.707031 -7.296875 4.40625 -7.421875 C 4.550781 -6.953125 4.78125 -6.535156 5.09375 -6.171875 C 5.414062 -5.816406 5.859375 -5.554688 6.421875 -5.390625 C 6.773438 -5.296875 7.171875 -5.269531 7.609375 -5.3125 C 8.054688 -5.363281 8.488281 -5.488281 8.90625 -5.6875 C 9.332031 -5.894531 9.675781 -6.164062 9.9375 -6.5 Z M 5.671875 -12.84375 C 5.441406 -12.84375 5.15625 -12.625 4.8125 -12.1875 C 4.46875 -11.75 4.296875 -11.082031 4.296875 -10.1875 C 4.296875 -9.4375 4.4375 -8.847656 4.71875 -8.421875 C 5.007812 -7.992188 5.328125 -7.78125 5.671875 -7.78125 C 6.035156 -7.78125 6.335938 -8.023438 6.578125 -8.515625 C 6.828125 -9.015625 6.953125 -9.609375 6.953125 -10.296875 C 6.953125 -11.003906 6.828125 -11.601562 6.578125 -12.09375 C 6.335938 -12.59375 6.035156 -12.84375 5.671875 -12.84375 Z M 5.671875 -12.84375 "/></g></g></g><g fill="#5271ff" fill-opacity="1"><g transform="translate(69.458928, 27.179336)"><g><path d="M 13.5625 -3.875 C 13.707031 -3.769531 13.757812 -3.644531 13.71875 -3.5 C 13.6875 -3.363281 13.597656 -3.296875 13.453125 -3.296875 L 7.890625 -3.296875 C 7.597656 -3.296875 7.445312 -3.378906 7.4375 -3.546875 C 7.425781 -3.710938 7.488281 -3.859375 7.625 -3.984375 C 7.976562 -4.304688 8.234375 -4.796875 8.390625 -5.453125 C 8.546875 -6.117188 8.617188 -6.84375 8.609375 -7.625 C 8.597656 -8.40625 8.507812 -9.148438 8.34375 -9.859375 C 8.175781 -10.578125 7.953125 -11.164062 7.671875 -11.625 C 7.390625 -12.09375 7.054688 -12.328125 6.671875 -12.328125 C 6.390625 -12.328125 6.113281 -12.144531 5.84375 -11.78125 C 5.570312 -11.425781 5.316406 -10.976562 5.078125 -10.4375 C 4.929688 -8.664062 4.945312 -7.226562 5.125 -6.125 C 5.300781 -5.019531 5.59375 -4.304688 6 -3.984375 C 6.144531 -3.878906 6.207031 -3.738281 6.1875 -3.5625 C 6.175781 -3.382812 6.019531 -3.296875 5.71875 -3.296875 L 0.28125 -3.296875 C 0.144531 -3.296875 0.0546875 -3.363281 0.015625 -3.5 C -0.015625 -3.644531 0.0351562 -3.769531 0.171875 -3.875 C 0.648438 -4.25 0.957031 -4.609375 1.09375 -4.953125 C 1.238281 -5.296875 1.3125 -5.726562 1.3125 -6.25 L 1.3125 -8.59375 C 1.3125 -9.113281 1.238281 -9.550781 1.09375 -9.90625 C 0.957031 -10.257812 0.648438 -10.625 0.171875 -11 C 0.0351562 -11.101562 -0.015625 -11.21875 0.015625 -11.34375 C 0.0546875 -11.476562 0.144531 -11.546875 0.28125 -11.546875 C 0.945312 -11.546875 1.523438 -11.640625 2.015625 -11.828125 C 2.515625 -12.015625 2.945312 -12.234375 3.3125 -12.484375 C 3.6875 -12.734375 4.019531 -12.960938 4.3125 -13.171875 C 4.601562 -13.390625 4.878906 -13.53125 5.140625 -13.59375 C 5.429688 -13.644531 5.550781 -13.585938 5.5 -13.421875 C 5.457031 -13.253906 5.421875 -13.078125 5.390625 -12.890625 L 5.296875 -12.3125 C 5.578125 -12.675781 5.898438 -12.984375 6.265625 -13.234375 C 6.628906 -13.492188 7.035156 -13.625 7.484375 -13.625 C 8.484375 -13.625 9.347656 -13.375 10.078125 -12.875 C 10.816406 -12.382812 11.390625 -11.71875 11.796875 -10.875 C 12.210938 -10.039062 12.421875 -9.113281 12.421875 -8.09375 L 12.421875 -6.25 C 12.421875 -5.726562 12.488281 -5.296875 12.625 -4.953125 C 12.769531 -4.609375 13.082031 -4.25 13.5625 -3.875 Z M 13.5625 -3.875 "/></g></g></g><g fill="#5271ff" fill-opacity="1"><g transform="translate(82.658179, 27.179336)"><g/></g></g><g fill="#5271ff" fill-opacity="1"><g transform="translate(86.174139, 27.179336)"><g><path d="M 7.640625 -11.640625 C 8.179688 -11.265625 8.707031 -10.875 9.21875 -10.46875 C 9.726562 -10.070312 10.164062 -9.644531 10.53125 -9.1875 C 10.894531 -8.738281 11.113281 -8.234375 11.1875 -7.671875 C 11.300781 -6.960938 11.148438 -6.273438 10.734375 -5.609375 C 10.316406 -4.953125 9.71875 -4.414062 8.9375 -4 C 8.15625 -3.582031 7.25 -3.359375 6.21875 -3.328125 L 6.140625 -3.328125 C 5.335938 -3.304688 4.679688 -3.390625 4.171875 -3.578125 C 3.660156 -3.773438 3.15625 -3.953125 2.65625 -4.109375 C 2.351562 -4.191406 2.046875 -4.164062 1.734375 -4.03125 C 1.429688 -3.894531 1.148438 -3.742188 0.890625 -3.578125 C 0.628906 -3.410156 0.414062 -3.316406 0.25 -3.296875 C 0.0820312 -3.273438 0 -3.414062 0 -3.71875 L 0 -8.015625 C 0 -8.398438 0.09375 -8.617188 0.28125 -8.671875 C 0.46875 -8.734375 0.679688 -8.566406 0.921875 -8.171875 C 1.941406 -6.671875 2.898438 -5.601562 3.796875 -4.96875 C 4.691406 -4.332031 5.441406 -4.039062 6.046875 -4.09375 C 6.648438 -4.15625 7.023438 -4.460938 7.171875 -5.015625 C 7.304688 -5.484375 7.238281 -5.90625 6.96875 -6.28125 C 6.695312 -6.65625 6.300781 -7.015625 5.78125 -7.359375 C 5.257812 -7.703125 4.6875 -8.050781 4.0625 -8.40625 C 3.4375 -8.769531 2.832031 -9.164062 2.25 -9.59375 C 1.664062 -10.019531 1.171875 -10.507812 0.765625 -11.0625 C 0.367188 -11.613281 0.140625 -12.242188 0.078125 -12.953125 C -0.046875 -14.378906 0.363281 -15.484375 1.3125 -16.265625 C 2.257812 -17.046875 3.503906 -17.457031 5.046875 -17.5 L 5.140625 -17.5 C 5.878906 -17.519531 6.628906 -17.441406 7.390625 -17.265625 C 8.160156 -17.097656 8.847656 -16.820312 9.453125 -16.4375 C 10.054688 -16.0625 10.488281 -15.566406 10.75 -14.953125 C 10.988281 -14.359375 10.984375 -13.878906 10.734375 -13.515625 C 10.492188 -13.148438 10.128906 -12.898438 9.640625 -12.765625 C 9.148438 -12.628906 8.640625 -12.625 8.109375 -12.75 C 7.578125 -12.882812 7.128906 -13.144531 6.765625 -13.53125 C 6.398438 -13.925781 6.25 -14.457031 6.3125 -15.125 C 6.34375 -15.644531 6.257812 -16.03125 6.0625 -16.28125 C 5.875 -16.53125 5.632812 -16.671875 5.34375 -16.703125 C 5.050781 -16.734375 4.785156 -16.660156 4.546875 -16.484375 C 4.304688 -16.316406 4.160156 -16.078125 4.109375 -15.765625 C 4.015625 -15.191406 4.140625 -14.664062 4.484375 -14.1875 C 4.835938 -13.71875 5.300781 -13.273438 5.875 -12.859375 C 6.457031 -12.453125 7.046875 -12.046875 7.640625 -11.640625 Z M 7.640625 -11.640625 "/></g></g></g><g fill="#5271ff" fill-opacity="1"><g transform="translate(96.750245, 27.179336)"><g><path d="M 6.859375 -12.390625 C 7.046875 -12.390625 7.171875 -12.320312 7.234375 -12.1875 C 7.304688 -12.0625 7.34375 -11.90625 7.34375 -11.71875 C 7.34375 -11.53125 7.304688 -11.367188 7.234375 -11.234375 C 7.171875 -11.109375 7.046875 -11.046875 6.859375 -11.046875 L 5.5 -11.046875 C 5.4375 -9.859375 5.445312 -8.757812 5.53125 -7.75 C 5.625 -6.75 5.757812 -5.921875 5.9375 -5.265625 C 6.125 -4.617188 6.335938 -4.191406 6.578125 -3.984375 C 6.734375 -3.878906 6.800781 -3.738281 6.78125 -3.5625 C 6.757812 -3.382812 6.59375 -3.296875 6.28125 -3.296875 L 0.640625 -3.296875 C 0.453125 -3.296875 0.359375 -3.378906 0.359375 -3.546875 C 0.359375 -3.710938 0.425781 -3.859375 0.5625 -3.984375 C 0.875 -4.285156 1.085938 -4.6875 1.203125 -5.1875 C 1.328125 -5.6875 1.398438 -6.207031 1.421875 -6.75 C 1.441406 -7.289062 1.453125 -7.757812 1.453125 -8.15625 C 1.453125 -8.519531 1.441406 -8.976562 1.421875 -9.53125 C 1.398438 -10.082031 1.289062 -10.585938 1.09375 -11.046875 L 0.46875 -11.046875 C 0.289062 -11.046875 0.164062 -11.109375 0.09375 -11.234375 C 0.03125 -11.367188 0 -11.53125 0 -11.71875 C 0 -11.90625 0.03125 -12.0625 0.09375 -12.1875 C 0.164062 -12.320312 0.289062 -12.390625 0.46875 -12.390625 L 0.640625 -12.390625 C 1.304688 -12.390625 1.863281 -12.539062 2.3125 -12.84375 C 2.757812 -13.15625 3.132812 -13.519531 3.4375 -13.9375 C 3.75 -14.351562 4.039062 -14.742188 4.3125 -15.109375 C 4.582031 -15.472656 4.882812 -15.710938 5.21875 -15.828125 C 5.5 -15.929688 5.703125 -15.90625 5.828125 -15.75 C 5.960938 -15.59375 6.007812 -15.421875 5.96875 -15.234375 C 5.894531 -14.753906 5.820312 -14.273438 5.75 -13.796875 C 5.675781 -13.328125 5.617188 -12.859375 5.578125 -12.390625 Z M 6.859375 -12.390625 "/></g></g></g><g fill="#5271ff" fill-opacity="1"><g transform="translate(103.419554, 27.179336)"><g><path d="M 5.578125 -13.625 C 6.597656 -13.625 7.523438 -13.390625 8.359375 -12.921875 C 9.203125 -12.453125 9.875 -11.828125 10.375 -11.046875 C 10.882812 -10.265625 11.140625 -9.398438 11.140625 -8.453125 C 11.140625 -7.503906 10.882812 -6.640625 10.375 -5.859375 C 9.875 -5.078125 9.203125 -4.453125 8.359375 -3.984375 C 7.523438 -3.523438 6.597656 -3.296875 5.578125 -3.296875 C 4.554688 -3.296875 3.617188 -3.523438 2.765625 -3.984375 C 1.921875 -4.453125 1.25 -5.078125 0.75 -5.859375 C 0.25 -6.640625 0 -7.503906 0 -8.453125 C 0 -9.398438 0.25 -10.265625 0.75 -11.046875 C 1.25 -11.828125 1.921875 -12.453125 2.765625 -12.921875 C 3.617188 -13.390625 4.554688 -13.625 5.578125 -13.625 Z M 5.578125 -4.078125 C 5.878906 -4.078125 6.144531 -4.273438 6.375 -4.671875 C 6.601562 -5.078125 6.789062 -5.609375 6.9375 -6.265625 C 7.09375 -6.921875 7.171875 -7.648438 7.171875 -8.453125 C 7.171875 -9.273438 7.09375 -10.015625 6.9375 -10.671875 C 6.789062 -11.335938 6.601562 -11.863281 6.375 -12.25 C 6.144531 -12.644531 5.878906 -12.84375 5.578125 -12.84375 C 5.285156 -12.84375 5.015625 -12.644531 4.765625 -12.25 C 4.523438 -11.863281 4.332031 -11.335938 4.1875 -10.671875 C 4.039062 -10.015625 3.96875 -9.273438 3.96875 -8.453125 C 3.96875 -7.648438 4.039062 -6.921875 4.1875 -6.265625 C 4.332031 -5.609375 4.523438 -5.078125 4.765625 -4.671875 C 5.015625 -4.273438 5.285156 -4.078125 5.578125 -4.078125 Z M 5.578125 -4.078125 "/></g></g></g><g fill="#5271ff" fill-opacity="1"><g transform="translate(114.107288, 27.179336)"><g><path d="M 8.484375 -13.625 C 9.023438 -13.625 9.578125 -13.476562 10.140625 -13.1875 C 10.710938 -12.894531 11.050781 -12.453125 11.15625 -11.859375 C 11.269531 -11.316406 11.203125 -10.859375 10.953125 -10.484375 C 10.703125 -10.117188 10.367188 -9.832031 9.953125 -9.625 C 9.535156 -9.425781 9.109375 -9.316406 8.671875 -9.296875 C 8.242188 -9.273438 7.894531 -9.363281 7.625 -9.5625 C 7.363281 -9.769531 7.257812 -10.085938 7.3125 -10.515625 C 7.363281 -10.835938 7.414062 -11.113281 7.46875 -11.34375 C 7.53125 -11.570312 7.429688 -11.6875 7.171875 -11.6875 C 6.835938 -11.6875 6.457031 -11.472656 6.03125 -11.046875 C 5.613281 -10.617188 5.273438 -10.15625 5.015625 -9.65625 C 4.929688 -8.113281 4.972656 -6.859375 5.140625 -5.890625 C 5.316406 -4.921875 5.601562 -4.285156 6 -3.984375 C 6.144531 -3.878906 6.207031 -3.738281 6.1875 -3.5625 C 6.175781 -3.382812 6.019531 -3.296875 5.71875 -3.296875 L 0.28125 -3.296875 C 0.144531 -3.296875 0.0546875 -3.363281 0.015625 -3.5 C -0.015625 -3.644531 0.0351562 -3.769531 0.171875 -3.875 C 0.648438 -4.25 0.957031 -4.609375 1.09375 -4.953125 C 1.238281 -5.296875 1.3125 -5.726562 1.3125 -6.25 L 1.3125 -8.59375 C 1.3125 -9.113281 1.238281 -9.550781 1.09375 -9.90625 C 0.957031 -10.257812 0.648438 -10.625 0.171875 -11 C 0.0351562 -11.101562 -0.015625 -11.21875 0.015625 -11.34375 C 0.0546875 -11.476562 0.144531 -11.546875 0.28125 -11.546875 C 0.945312 -11.546875 1.523438 -11.640625 2.015625 -11.828125 C 2.515625 -12.015625 2.945312 -12.234375 3.3125 -12.484375 C 3.6875 -12.734375 4.019531 -12.960938 4.3125 -13.171875 C 4.601562 -13.390625 4.878906 -13.53125 5.140625 -13.59375 C 5.429688 -13.644531 5.550781 -13.585938 5.5 -13.421875 C 5.457031 -13.253906 5.421875 -13.078125 5.390625 -12.890625 L 5.15625 -11.078125 C 5.382812 -11.390625 5.664062 -11.742188 6 -12.140625 C 6.332031 -12.546875 6.710938 -12.894531 7.140625 -13.1875 C 7.566406 -13.476562 8.015625 -13.625 8.484375 -13.625 Z M 8.484375 -13.625 "/></g></g></g><g fill="#5271ff" fill-opacity="1"><g transform="translate(124.627593, 27.179336)"><g><path d="M 9.9375 -6.5 C 10.082031 -6.6875 10.238281 -6.703125 10.40625 -6.546875 C 10.570312 -6.390625 10.609375 -6.234375 10.515625 -6.078125 C 10.054688 -5.265625 9.390625 -4.597656 8.515625 -4.078125 C 7.640625 -3.554688 6.660156 -3.296875 5.578125 -3.296875 C 4.554688 -3.296875 3.617188 -3.523438 2.765625 -3.984375 C 1.921875 -4.453125 1.25 -5.078125 0.75 -5.859375 C 0.25 -6.640625 0 -7.503906 0 -8.453125 C 0 -9.398438 0.25 -10.265625 0.75 -11.046875 C 1.25 -11.828125 1.9375 -12.453125 2.8125 -12.921875 C 3.6875 -13.390625 4.679688 -13.625 5.796875 -13.625 C 6.523438 -13.625 7.238281 -13.472656 7.9375 -13.171875 C 8.632812 -12.867188 9.207031 -12.46875 9.65625 -11.96875 C 10.101562 -11.46875 10.328125 -10.910156 10.328125 -10.296875 C 10.328125 -9.703125 10.144531 -9.148438 9.78125 -8.640625 C 9.414062 -8.140625 8.9375 -7.738281 8.34375 -7.4375 C 7.75 -7.144531 7.085938 -7 6.359375 -7 C 6.003906 -7 5.664062 -7.035156 5.34375 -7.109375 C 5.019531 -7.191406 4.707031 -7.296875 4.40625 -7.421875 C 4.550781 -6.953125 4.78125 -6.535156 5.09375 -6.171875 C 5.414062 -5.816406 5.859375 -5.554688 6.421875 -5.390625 C 6.773438 -5.296875 7.171875 -5.269531 7.609375 -5.3125 C 8.054688 -5.363281 8.488281 -5.488281 8.90625 -5.6875 C 9.332031 -5.894531 9.675781 -6.164062 9.9375 -6.5 Z M 5.671875 -12.84375 C 5.441406 -12.84375 5.15625 -12.625 4.8125 -12.1875 C 4.46875 -11.75 4.296875 -11.082031 4.296875 -10.1875 C 4.296875 -9.4375 4.4375 -8.847656 4.71875 -8.421875 C 5.007812 -7.992188 5.328125 -7.78125 5.671875 -7.78125 C 6.035156 -7.78125 6.335938 -8.023438 6.578125 -8.515625 C 6.828125 -9.015625 6.953125 -9.609375 6.953125 -10.296875 C 6.953125 -11.003906 6.828125 -11.601562 6.578125 -12.09375 C 6.335938 -12.59375 6.035156 -12.84375 5.671875 -12.84375 Z M 5.671875 -12.84375 "/></g></g></g><g clip-path="url(#9fbd0c73a1)"><path fill="#5271ff" d="M 50.300781 30.84375 C 48.214844 31.332031 47.820312 31.730469 47.328125 33.8125 C 46.839844 31.730469 46.441406 31.332031 44.359375 30.84375 C 46.441406 30.351562 46.839844 29.953125 47.328125 27.871094 C 47.820312 29.953125 48.214844 30.351562 50.300781 30.84375 Z M 50.300781 30.84375 " fill-opacity="1" fill-rule="nonzero"/></g><g clip-path="url(#62bf879c0d)"><path fill="#5271ff" d="M 115.34375 9.132812 C 117.425781 8.640625 117.824219 8.242188 118.316406 6.160156 C 118.804688 8.242188 119.203125 8.640625 121.285156 9.132812 C 119.203125 9.621094 118.804688 10.019531 118.316406 12.101562 C 117.824219 10.019531 117.425781 9.621094 115.34375 9.132812 Z M 115.34375 9.132812 " fill-opacity="1" fill-rule="nonzero"/></g><g clip-path="url(#653c02f2ef)"><path fill="#5271ff" d="M 112.257812 4.121094 C 113.679688 3.789062 113.953125 3.515625 114.285156 2.09375 C 114.621094 3.515625 114.894531 3.789062 116.316406 4.121094 C 114.894531 4.457031 114.621094 4.726562 114.285156 6.152344 C 113.953125 4.726562 113.679688 4.457031 112.257812 4.121094 Z M 112.257812 4.121094 " fill-opacity="1" fill-rule="nonzero"/></g><g clip-path="url(#386d01cb75)"><path fill="#004aad" d="M 70.648438 8.363281 C 69.226562 8.699219 68.953125 8.96875 68.621094 10.394531 C 68.285156 8.96875 68.015625 8.699219 66.589844 8.363281 C 68.015625 8.027344 68.285156 7.757812 68.621094 6.335938 C 68.953125 7.757812 69.226562 8.027344 70.648438 8.363281 Z M 70.648438 8.363281 " fill-opacity="1" fill-rule="nonzero"/></g><path fill="#ffffff" d="M 38.878906 12.679688 C 39.59375 14.917969 39.886719 17.292969 39.746094 19.640625 C 39.734375 19.828125 39.714844 20.027344 39.585938 20.160156 C 39.484375 20.265625 39.335938 20.308594 39.195312 20.347656 C 32.96875 22.019531 26.539062 22.925781 20.09375 23.042969 C 18.027344 23.078125 15.683594 22.910156 14.359375 21.324219 C 13.222656 19.964844 13.230469 18.019531 13.292969 16.25 C 13.324219 15.394531 13.351562 14.539062 13.382812 13.683594 C 13.394531 13.386719 13.410156 13.066406 13.582031 12.824219 C 13.859375 12.433594 14.410156 12.386719 14.890625 12.386719 C 18.667969 12.394531 22.390625 13.195312 26.136719 13.695312 C 29.878906 14.195312 33.769531 14.386719 37.359375 13.21875 L 38.882812 12.679688 Z M 38.878906 12.679688 " fill-opacity="1" fill-rule="nonzero"/><g clip-path="url(#1aa0820bf1)"><path fill="#5271ff" d="M 4.890625 27.234375 C 4.96875 23.253906 5.046875 19.277344 5.125 15.296875 C 5.175781 12.691406 5.230469 10.066406 5.785156 7.515625 C 6.109375 6.027344 6.628906 4.53125 7.65625 3.40625 C 8.351562 2.640625 9.253906 2.089844 10.199219 1.671875 C 12.945312 0.464844 16.179688 0.40625 18.96875 1.519531 C 20.804688 2.25 22.425781 3.453125 24.285156 4.121094 C 28.5 5.644531 33.191406 4.230469 37.640625 4.765625 C 38.222656 4.835938 38.839844 4.960938 39.242188 5.382812 C 39.589844 5.75 39.707031 6.269531 39.800781 6.761719 C 40.152344 8.628906 40.335938 10.523438 40.351562 12.421875 C 40.363281 13.382812 40.269531 14.46875 39.527344 15.082031 C 39.039062 15.484375 38.378906 15.582031 37.753906 15.660156 C 31.558594 16.425781 25.273438 16.425781 19.078125 15.667969 C 18.917969 15.648438 18.753906 15.648438 18.59375 15.679688 C 17.707031 15.859375 17.71875 16.703125 17.796875 17.386719 C 17.894531 18.25 18.085938 19.234375 18.84375 19.65625 C 19.128906 19.816406 19.457031 19.871094 19.777344 19.914062 C 26.1875 20.796875 32.628906 18.519531 39.097656 18.675781 C 39.421875 18.683594 39.785156 18.714844 40.003906 18.953125 C 40.164062 19.121094 40.214844 19.363281 40.257812 19.597656 C 40.59375 21.445312 40.734375 23.328125 40.679688 25.207031 C 40.664062 25.683594 40.621094 26.203125 40.28125 26.539062 C 40.089844 26.730469 39.824219 26.832031 39.5625 26.921875 C 36.453125 27.984375 33.070312 27.828125 29.796875 27.785156 C 29.519531 27.78125 29.242188 27.808594 28.976562 27.882812 C 26.191406 28.660156 28.269531 32.765625 26.222656 33.914062 C 25.917969 34.085938 25.5625 34.152344 25.214844 34.210938 C 18.980469 35.300781 12.71875 36.214844 6.4375 36.960938 C 5.28125 37.097656 4.285156 36.152344 4.367188 34.992188 Z M 4.890625 27.234375 " fill-opacity="1" fill-rule="nonzero"/></g><path fill="#004aad" d="M 32.859375 6.285156 C 32.21875 6.539062 31.65625 7.074219 31.511719 7.765625 C 31.378906 8.417969 31.609375 9.117188 32.226562 9.429688 C 32.769531 9.707031 33.445312 9.699219 33.921875 9.292969 C 34.175781 9.070312 34.3125 8.722656 34.3125 8.386719 C 34.3125 8.007812 34.140625 7.652344 33.890625 7.375 C 33.269531 6.675781 32.261719 6.746094 31.441406 6.96875 C 31.125 7.054688 30.925781 7.46875 31.121094 7.757812 C 31.574219 8.433594 32.203125 8.925781 32.960938 9.214844 C 33.140625 9.28125 33.355469 9.199219 33.484375 9.074219 C 33.914062 8.675781 34.023438 8.066406 33.90625 7.511719 C 33.804688 7.023438 33.472656 6.527344 33.007812 6.320312 C 32.488281 6.09375 31.851562 6.160156 31.472656 6.617188 C 31.140625 7.023438 31.035156 7.535156 31.121094 8.046875 C 31.164062 8.308594 31.289062 8.546875 31.464844 8.742188 C 31.675781 8.980469 31.980469 9.089844 32.289062 9.109375 C 32.570312 9.128906 32.839844 8.847656 32.828125 8.574219 C 32.8125 8.265625 32.589844 8.054688 32.289062 8.035156 C 32.222656 8.027344 32.222656 8 32.351562 8.042969 C 32.335938 8.039062 32.316406 8.035156 32.296875 8.03125 C 32.28125 8.027344 32.261719 8.019531 32.246094 8.015625 C 32.179688 8 32.328125 8.042969 32.324219 8.050781 C 32.320312 8.054688 32.238281 8.003906 32.230469 8 C 32.164062 7.957031 32.34375 8.097656 32.285156 8.039062 C 32.273438 8.027344 32.261719 8.015625 32.25 8.003906 C 32.238281 7.992188 32.226562 7.980469 32.214844 7.964844 C 32.15625 7.910156 32.296875 8.089844 32.253906 8.019531 C 32.238281 7.996094 32.222656 7.96875 32.207031 7.945312 C 32.199219 7.929688 32.195312 7.910156 32.183594 7.894531 C 32.144531 7.820312 32.238281 8.035156 32.210938 7.957031 C 32.199219 7.921875 32.1875 7.886719 32.179688 7.851562 C 32.171875 7.828125 32.144531 7.757812 32.15625 7.738281 C 32.160156 7.730469 32.167969 7.902344 32.167969 7.824219 C 32.167969 7.808594 32.164062 7.785156 32.164062 7.769531 C 32.160156 7.730469 32.160156 7.691406 32.164062 7.652344 C 32.164062 7.589844 32.203125 7.460938 32.15625 7.660156 C 32.171875 7.589844 32.183594 7.519531 32.203125 7.449219 C 32.210938 7.433594 32.21875 7.414062 32.222656 7.398438 C 32.246094 7.324219 32.191406 7.484375 32.191406 7.472656 C 32.1875 7.449219 32.238281 7.378906 32.253906 7.355469 C 32.289062 7.296875 32.351562 7.257812 32.230469 7.375 C 32.257812 7.347656 32.28125 7.320312 32.304688 7.292969 C 32.3125 7.289062 32.34375 7.257812 32.347656 7.257812 C 32.359375 7.261719 32.21875 7.34375 32.28125 7.3125 C 32.320312 7.289062 32.355469 7.269531 32.394531 7.25 C 32.25 7.335938 32.304688 7.28125 32.371094 7.265625 C 32.386719 7.261719 32.410156 7.257812 32.425781 7.253906 C 32.304688 7.300781 32.296875 7.265625 32.367188 7.261719 C 32.402344 7.261719 32.441406 7.261719 32.480469 7.261719 C 32.574219 7.265625 32.332031 7.234375 32.421875 7.253906 C 32.449219 7.261719 32.480469 7.265625 32.507812 7.273438 C 32.519531 7.277344 32.53125 7.285156 32.546875 7.285156 C 32.632812 7.308594 32.417969 7.222656 32.496094 7.265625 C 32.535156 7.285156 32.570312 7.304688 32.605469 7.328125 C 32.710938 7.386719 32.507812 7.238281 32.601562 7.320312 C 32.632812 7.347656 32.664062 7.378906 32.695312 7.414062 C 32.707031 7.429688 32.722656 7.449219 32.734375 7.464844 C 32.621094 7.339844 32.679688 7.386719 32.707031 7.425781 C 32.726562 7.457031 32.746094 7.488281 32.765625 7.523438 C 32.789062 7.5625 32.804688 7.601562 32.828125 7.644531 C 32.738281 7.472656 32.8125 7.613281 32.828125 7.664062 C 32.84375 7.71875 32.859375 7.765625 32.867188 7.820312 C 32.871094 7.835938 32.871094 7.851562 32.875 7.863281 C 32.835938 7.683594 32.867188 7.785156 32.871094 7.835938 C 32.875 7.886719 32.875 7.933594 32.871094 7.984375 C 32.871094 8 32.871094 8.019531 32.867188 8.039062 C 32.863281 8.128906 32.898438 7.878906 32.875 8.007812 C 32.867188 8.050781 32.855469 8.09375 32.84375 8.136719 C 32.835938 8.160156 32.828125 8.179688 32.820312 8.199219 C 32.871094 8.03125 32.851562 8.125 32.828125 8.171875 C 32.804688 8.210938 32.78125 8.246094 32.757812 8.285156 C 32.839844 8.148438 32.820312 8.207031 32.785156 8.246094 C 32.765625 8.269531 32.742188 8.289062 32.71875 8.3125 L 33.242188 8.171875 C 33.207031 8.160156 33.074219 8.085938 33.214844 8.164062 C 33.183594 8.148438 33.152344 8.136719 33.121094 8.121094 C 33.050781 8.085938 32.980469 8.050781 32.910156 8.011719 C 32.84375 7.96875 32.777344 7.929688 32.710938 7.882812 C 32.679688 7.863281 32.65625 7.84375 32.625 7.824219 C 32.605469 7.8125 32.589844 7.796875 32.570312 7.785156 C 32.632812 7.832031 32.644531 7.839844 32.613281 7.816406 C 32.496094 7.71875 32.382812 7.617188 32.277344 7.503906 C 32.257812 7.480469 32.140625 7.324219 32.121094 7.324219 C 32.167969 7.382812 32.179688 7.398438 32.15625 7.367188 C 32.144531 7.351562 32.132812 7.339844 32.125 7.324219 C 32.097656 7.289062 32.070312 7.25 32.046875 7.210938 L 31.722656 8.003906 C 31.859375 7.96875 31.996094 7.933594 32.132812 7.910156 C 32.164062 7.902344 32.214844 7.886719 32.246094 7.890625 L 32.179688 7.898438 C 32.203125 7.894531 32.230469 7.894531 32.253906 7.890625 C 32.328125 7.882812 32.40625 7.878906 32.480469 7.878906 C 32.519531 7.878906 32.554688 7.882812 32.59375 7.882812 L 32.628906 7.886719 C 32.679688 7.890625 32.679688 7.890625 32.632812 7.886719 L 32.597656 7.878906 C 32.621094 7.882812 32.648438 7.886719 32.671875 7.894531 C 32.707031 7.898438 32.742188 7.910156 32.78125 7.917969 C 32.816406 7.925781 32.851562 7.941406 32.886719 7.949219 C 32.984375 7.980469 32.859375 7.941406 32.847656 7.933594 C 32.894531 7.972656 32.976562 8.003906 33.03125 8.039062 C 33.117188 8.097656 32.953125 7.96875 33.003906 8.019531 C 33.023438 8.035156 33.042969 8.050781 33.058594 8.070312 C 33.082031 8.089844 33.101562 8.109375 33.121094 8.132812 L 33.144531 8.15625 C 33.179688 8.199219 33.167969 8.1875 33.113281 8.117188 C 33.128906 8.160156 33.171875 8.203125 33.195312 8.246094 C 33.222656 8.296875 33.210938 8.34375 33.1875 8.222656 C 33.195312 8.25 33.207031 8.277344 33.21875 8.304688 C 33.222656 8.332031 33.226562 8.363281 33.238281 8.386719 C 33.191406 8.289062 33.226562 8.285156 33.230469 8.359375 C 33.230469 8.386719 33.230469 8.414062 33.230469 8.441406 C 33.230469 8.5 33.195312 8.460938 33.238281 8.386719 C 33.226562 8.40625 33.21875 8.445312 33.214844 8.46875 C 33.191406 8.578125 33.277344 8.347656 33.234375 8.429688 C 33.226562 8.445312 33.21875 8.457031 33.214844 8.46875 C 33.207031 8.484375 33.199219 8.496094 33.191406 8.507812 C 33.160156 8.550781 33.175781 8.53125 33.238281 8.449219 C 33.210938 8.46875 33.179688 8.503906 33.15625 8.527344 C 33.113281 8.570312 33.28125 8.449219 33.207031 8.488281 C 33.1875 8.496094 33.167969 8.507812 33.152344 8.519531 C 33.101562 8.550781 33.066406 8.527344 33.207031 8.5 C 33.195312 8.503906 33.179688 8.511719 33.167969 8.515625 C 33.117188 8.53125 33.070312 8.539062 33.019531 8.550781 C 33.203125 8.507812 33.089844 8.542969 33.03125 8.546875 C 32.988281 8.546875 32.941406 8.542969 32.898438 8.539062 C 32.855469 8.539062 32.8125 8.515625 32.972656 8.550781 C 32.949219 8.546875 32.929688 8.542969 32.90625 8.539062 C 32.859375 8.527344 32.816406 8.515625 32.773438 8.5 C 32.730469 8.488281 32.667969 8.445312 32.820312 8.523438 C 32.796875 8.511719 32.777344 8.503906 32.757812 8.492188 C 32.722656 8.476562 32.691406 8.457031 32.660156 8.4375 C 32.617188 8.40625 32.585938 8.355469 32.695312 8.464844 C 32.679688 8.449219 32.664062 8.4375 32.644531 8.421875 C 32.636719 8.410156 32.625 8.398438 32.613281 8.390625 C 32.574219 8.347656 32.546875 8.273438 32.628906 8.414062 C 32.605469 8.378906 32.582031 8.34375 32.5625 8.308594 C 32.535156 8.257812 32.566406 8.246094 32.585938 8.363281 C 32.582031 8.335938 32.566406 8.304688 32.558594 8.277344 C 32.550781 8.25 32.546875 8.222656 32.539062 8.195312 C 32.519531 8.105469 32.546875 8.25 32.546875 8.25 C 32.523438 8.199219 32.542969 8.105469 32.542969 8.050781 C 32.546875 7.960938 32.535156 8.105469 32.535156 8.109375 C 32.535156 8.074219 32.550781 8.027344 32.558594 7.996094 C 32.574219 7.9375 32.601562 7.886719 32.617188 7.828125 C 32.582031 7.96875 32.585938 7.894531 32.609375 7.847656 C 32.628906 7.8125 32.648438 7.777344 32.667969 7.746094 C 32.679688 7.722656 32.695312 7.703125 32.707031 7.683594 C 32.714844 7.667969 32.722656 7.65625 32.734375 7.644531 C 32.765625 7.601562 32.757812 7.613281 32.703125 7.683594 C 32.753906 7.640625 32.792969 7.582031 32.835938 7.535156 C 32.855469 7.519531 32.871094 7.5 32.890625 7.484375 C 32.90625 7.472656 32.921875 7.457031 32.9375 7.445312 C 32.980469 7.410156 32.96875 7.417969 32.898438 7.472656 C 32.953125 7.449219 33 7.402344 33.050781 7.371094 C 33.078125 7.355469 33.105469 7.34375 33.132812 7.328125 C 33.261719 7.261719 33.050781 7.355469 33.140625 7.320312 C 33.273438 7.265625 33.382812 7.203125 33.460938 7.074219 C 33.527344 6.957031 33.558594 6.789062 33.515625 6.660156 C 33.433594 6.40625 33.132812 6.171875 32.851562 6.28125 Z M 32.859375 6.285156 " fill-opacity="1" fill-rule="nonzero"/><path fill="#004aad" d="M 19.148438 14.761719 C 20.375 16.308594 21.640625 17.820312 22.953125 19.292969 C 23.324219 19.707031 23.699219 20.121094 24.074219 20.53125 C 24.152344 20.613281 24.300781 20.589844 24.351562 20.496094 C 25.414062 18.617188 26.609375 16.8125 27.933594 15.105469 L 27.65625 15.070312 C 28.664062 16.996094 29.984375 18.757812 31.550781 20.261719 C 31.996094 20.6875 32.457031 21.09375 32.9375 21.476562 C 33.023438 21.542969 33.15625 21.550781 33.21875 21.441406 C 34.226562 19.601562 35.328125 17.816406 36.519531 16.089844 C 36.859375 15.597656 37.207031 15.109375 37.566406 14.625 L 37.257812 14.625 C 38.164062 16.265625 39.070312 17.910156 39.976562 19.554688 C 40.085938 19.753906 40.390625 19.578125 40.28125 19.378906 C 39.375 17.734375 38.46875 16.089844 37.566406 14.445312 C 37.496094 14.320312 37.332031 14.34375 37.257812 14.445312 C 36.015625 16.136719 34.863281 17.886719 33.800781 19.695312 C 33.496094 20.214844 33.199219 20.734375 32.910156 21.261719 L 33.191406 21.226562 C 31.507812 19.882812 30.042969 18.273438 28.875 16.464844 C 28.546875 15.953125 28.242188 15.429688 27.960938 14.894531 C 27.914062 14.800781 27.753906 14.769531 27.683594 14.855469 C 26.339844 16.585938 25.125 18.410156 24.046875 20.316406 L 24.324219 20.28125 C 22.992188 18.832031 21.699219 17.339844 20.449219 15.816406 C 20.09375 15.382812 19.746094 14.949219 19.402344 14.511719 C 19.257812 14.335938 19.011719 14.585938 19.152344 14.761719 Z M 19.148438 14.761719 " fill-opacity="1" fill-rule="nonzero"/><path fill="#004aad" d="M 5.609375 14.46875 C 5.617188 15.285156 6.011719 16.09375 6.675781 16.578125 C 7.003906 16.816406 7.460938 16.941406 7.816406 16.679688 C 8.109375 16.464844 8.230469 16.097656 8.277344 15.75 C 8.332031 15.339844 8.253906 14.828125 8.546875 14.492188 C 8.699219 14.320312 8.449219 14.070312 8.296875 14.242188 C 8.054688 14.519531 7.988281 14.863281 7.964844 15.21875 C 7.9375 15.53125 7.949219 15.863281 7.800781 16.152344 C 7.402344 16.941406 6.546875 16.074219 6.277344 15.613281 C 6.074219 15.265625 5.964844 14.871094 5.964844 14.46875 C 5.960938 14.242188 5.605469 14.242188 5.609375 14.46875 Z M 5.609375 14.46875 " fill-opacity="1" fill-rule="nonzero"/><path fill="#004aad" d="M 9.976562 18.074219 C 9.859375 18.816406 9.855469 19.679688 10.507812 20.1875 C 10.773438 20.394531 11.125 20.503906 11.457031 20.410156 C 11.734375 20.332031 11.964844 20.121094 12.089844 19.863281 C 12.234375 19.558594 12.253906 19.203125 12.082031 18.902344 C 11.96875 18.703125 11.664062 18.882812 11.777344 19.082031 C 11.972656 19.421875 11.773438 19.917969 11.410156 20.054688 C 10.894531 20.25 10.4375 19.714844 10.320312 19.269531 C 10.226562 18.910156 10.261719 18.527344 10.316406 18.167969 C 10.332031 18.074219 10.292969 17.976562 10.195312 17.949219 C 10.109375 17.925781 9.992188 17.976562 9.976562 18.074219 Z M 9.976562 18.074219 " fill-opacity="1" fill-rule="nonzero"/><path fill="#004aad" d="M 6.855469 19.035156 C 6.898438 19.535156 6.960938 20.089844 7.332031 20.464844 C 7.625 20.757812 8.117188 20.8125 8.472656 20.601562 C 8.671875 20.480469 8.800781 20.28125 8.800781 20.046875 C 8.800781 19.8125 8.445312 19.820312 8.445312 20.046875 C 8.445312 20.0625 8.445312 20.082031 8.445312 20.097656 C 8.449219 20.066406 8.441406 20.113281 8.4375 20.121094 C 8.4375 20.128906 8.421875 20.167969 8.429688 20.152344 C 8.433594 20.140625 8.414062 20.179688 8.410156 20.1875 C 8.40625 20.195312 8.402344 20.199219 8.398438 20.207031 C 8.382812 20.226562 8.414062 20.1875 8.398438 20.207031 C 8.386719 20.21875 8.375 20.230469 8.363281 20.238281 C 8.351562 20.25 8.34375 20.261719 8.328125 20.273438 C 8.3125 20.285156 8.332031 20.269531 8.335938 20.269531 C 8.324219 20.277344 8.3125 20.285156 8.300781 20.289062 C 8.230469 20.335938 8.210938 20.339844 8.128906 20.359375 C 8.113281 20.363281 8.09375 20.367188 8.078125 20.367188 C 8.054688 20.371094 8.078125 20.367188 8.082031 20.367188 C 8.074219 20.367188 8.0625 20.371094 8.054688 20.371094 C 8.011719 20.375 7.972656 20.375 7.933594 20.371094 C 7.886719 20.367188 7.804688 20.351562 7.753906 20.332031 C 7.6875 20.304688 7.636719 20.265625 7.582031 20.210938 C 7.449219 20.078125 7.371094 19.90625 7.316406 19.726562 C 7.253906 19.5 7.226562 19.269531 7.207031 19.035156 C 7.199219 18.941406 7.132812 18.859375 7.03125 18.859375 C 6.941406 18.859375 6.84375 18.941406 6.851562 19.035156 Z M 6.855469 19.035156 " fill-opacity="1" fill-rule="nonzero"/><path fill="#004aad" d="M 21.964844 8.964844 C 21.863281 9.449219 22.175781 9.941406 22.640625 10.09375 C 23.105469 10.242188 23.554688 9.964844 23.734375 9.546875 C 23.84375 9.296875 23.851562 9.039062 23.742188 8.789062 C 23.707031 8.699219 23.574219 8.679688 23.5 8.722656 C 23.410156 8.777344 23.402344 8.878906 23.4375 8.964844 C 23.429688 8.945312 23.445312 8.984375 23.445312 8.992188 C 23.453125 9.011719 23.457031 9.03125 23.460938 9.054688 C 23.464844 9.0625 23.464844 9.070312 23.464844 9.082031 C 23.464844 9.078125 23.464844 9.058594 23.464844 9.078125 C 23.46875 9.101562 23.46875 9.125 23.46875 9.148438 C 23.46875 9.167969 23.46875 9.1875 23.46875 9.203125 C 23.46875 9.214844 23.464844 9.222656 23.464844 9.230469 C 23.464844 9.222656 23.472656 9.203125 23.464844 9.238281 C 23.457031 9.277344 23.449219 9.316406 23.433594 9.351562 C 23.433594 9.359375 23.414062 9.410156 23.421875 9.386719 C 23.414062 9.402344 23.40625 9.421875 23.398438 9.4375 C 23.378906 9.472656 23.355469 9.511719 23.332031 9.546875 C 23.308594 9.574219 23.226562 9.65625 23.195312 9.679688 C 23.164062 9.703125 23.128906 9.722656 23.09375 9.738281 C 23.066406 9.75 23.101562 9.738281 23.070312 9.746094 C 23.050781 9.753906 23.03125 9.761719 23.011719 9.765625 C 22.992188 9.773438 22.96875 9.777344 22.949219 9.78125 C 22.976562 9.777344 22.925781 9.78125 22.917969 9.78125 C 22.898438 9.78125 22.878906 9.78125 22.859375 9.78125 C 22.847656 9.78125 22.835938 9.777344 22.820312 9.777344 C 22.839844 9.777344 22.816406 9.773438 22.8125 9.773438 C 22.660156 9.738281 22.53125 9.65625 22.433594 9.535156 C 22.378906 9.464844 22.339844 9.386719 22.316406 9.304688 C 22.3125 9.28125 22.304688 9.253906 22.300781 9.230469 C 22.296875 9.210938 22.300781 9.222656 22.300781 9.230469 C 22.300781 9.21875 22.300781 9.203125 22.300781 9.191406 C 22.300781 9.164062 22.300781 9.140625 22.300781 9.113281 C 22.300781 9.113281 22.304688 9.082031 22.300781 9.097656 C 22.300781 9.109375 22.308594 9.0625 22.308594 9.0625 C 22.328125 8.96875 22.28125 8.871094 22.183594 8.84375 C 22.097656 8.820312 21.988281 8.875 21.964844 8.96875 Z M 21.964844 8.964844 " fill-opacity="1" fill-rule="nonzero"/><path fill="#004aad" d="M 36.054688 9.921875 C 36.019531 10.386719 36.035156 10.988281 36.515625 11.230469 C 36.726562 11.335938 36.988281 11.359375 37.210938 11.269531 C 37.445312 11.175781 37.621094 10.988281 37.6875 10.742188 C 37.757812 10.46875 37.695312 10.183594 37.515625 9.96875 C 37.453125 9.894531 37.328125 9.90625 37.265625 9.96875 C 37.191406 10.039062 37.203125 10.144531 37.265625 10.21875 C 37.289062 10.246094 37.269531 10.222656 37.265625 10.21875 C 37.273438 10.226562 37.277344 10.234375 37.285156 10.246094 C 37.296875 10.261719 37.308594 10.285156 37.316406 10.304688 C 37.320312 10.308594 37.332031 10.339844 37.324219 10.320312 C 37.316406 10.296875 37.328125 10.328125 37.328125 10.335938 C 37.339844 10.355469 37.34375 10.378906 37.351562 10.402344 C 37.351562 10.410156 37.363281 10.46875 37.355469 10.429688 C 37.359375 10.453125 37.363281 10.476562 37.363281 10.5 C 37.363281 10.523438 37.363281 10.542969 37.359375 10.5625 C 37.359375 10.570312 37.355469 10.601562 37.359375 10.578125 C 37.363281 10.554688 37.355469 10.597656 37.355469 10.601562 C 37.351562 10.621094 37.347656 10.640625 37.339844 10.660156 C 37.335938 10.671875 37.332031 10.683594 37.328125 10.695312 C 37.328125 10.703125 37.316406 10.734375 37.324219 10.710938 C 37.332031 10.691406 37.316406 10.722656 37.316406 10.726562 C 37.3125 10.734375 37.304688 10.746094 37.300781 10.753906 C 37.289062 10.773438 37.277344 10.792969 37.265625 10.8125 C 37.28125 10.785156 37.25 10.828125 37.242188 10.835938 C 37.230469 10.847656 37.222656 10.855469 37.214844 10.863281 C 37.210938 10.867188 37.183594 10.886719 37.203125 10.875 C 37.21875 10.863281 37.191406 10.882812 37.1875 10.882812 C 37.179688 10.890625 37.171875 10.898438 37.164062 10.902344 C 37.140625 10.914062 37.121094 10.921875 37.101562 10.933594 C 37.132812 10.917969 37.074219 10.945312 37.0625 10.945312 C 37.042969 10.953125 37.023438 10.960938 37.003906 10.960938 C 36.992188 10.964844 36.984375 10.964844 36.972656 10.96875 C 36.945312 10.972656 37 10.96875 36.972656 10.96875 C 36.949219 10.96875 36.925781 10.972656 36.902344 10.972656 C 36.878906 10.972656 36.855469 10.96875 36.832031 10.96875 C 36.804688 10.964844 36.859375 10.976562 36.832031 10.96875 C 36.820312 10.964844 36.8125 10.964844 36.800781 10.960938 C 36.78125 10.957031 36.761719 10.953125 36.742188 10.945312 C 36.730469 10.941406 36.722656 10.9375 36.710938 10.933594 C 36.691406 10.929688 36.734375 10.945312 36.703125 10.933594 C 36.683594 10.921875 36.664062 10.910156 36.640625 10.898438 C 36.632812 10.894531 36.625 10.886719 36.617188 10.882812 C 36.59375 10.867188 36.636719 10.898438 36.617188 10.882812 C 36.597656 10.867188 36.582031 10.855469 36.570312 10.839844 C 36.5625 10.832031 36.554688 10.824219 36.546875 10.816406 C 36.539062 10.808594 36.535156 10.800781 36.527344 10.796875 C 36.539062 10.808594 36.539062 10.808594 36.53125 10.796875 C 36.503906 10.761719 36.484375 10.722656 36.464844 10.683594 C 36.453125 10.65625 36.472656 10.707031 36.460938 10.679688 C 36.457031 10.667969 36.453125 10.660156 36.449219 10.648438 C 36.441406 10.621094 36.433594 10.59375 36.425781 10.566406 C 36.417969 10.542969 36.414062 10.515625 36.410156 10.492188 C 36.40625 10.480469 36.40625 10.46875 36.402344 10.457031 C 36.394531 10.402344 36.40625 10.492188 36.402344 10.433594 C 36.394531 10.378906 36.390625 10.320312 36.390625 10.265625 C 36.390625 10.152344 36.398438 10.035156 36.40625 9.921875 C 36.414062 9.832031 36.320312 9.742188 36.230469 9.746094 C 36.125 9.75 36.058594 9.824219 36.050781 9.921875 Z M 36.054688 9.921875 " fill-opacity="1" fill-rule="nonzero"/><path fill="#004aad" d="M 15.773438 22.519531 C 15.699219 22.898438 15.792969 23.347656 16.109375 23.597656 C 16.28125 23.738281 16.480469 23.800781 16.699219 23.765625 C 16.878906 23.734375 17.054688 23.625 17.171875 23.484375 C 17.324219 23.289062 17.367188 23.058594 17.265625 22.832031 C 17.226562 22.746094 17.097656 22.722656 17.023438 22.769531 C 16.933594 22.820312 16.921875 22.921875 16.960938 23.011719 C 16.945312 22.976562 16.960938 23.015625 16.964844 23.027344 C 16.96875 23.042969 16.972656 23.078125 16.96875 23.039062 C 16.972656 23.054688 16.972656 23.070312 16.972656 23.085938 C 16.972656 23.09375 16.972656 23.101562 16.972656 23.109375 C 16.972656 23.140625 16.980469 23.085938 16.972656 23.109375 C 16.96875 23.121094 16.964844 23.136719 16.960938 23.152344 C 16.957031 23.171875 16.945312 23.1875 16.960938 23.164062 C 16.945312 23.195312 16.925781 23.222656 16.90625 23.25 C 16.894531 23.273438 16.929688 23.230469 16.910156 23.25 C 16.90625 23.253906 16.898438 23.261719 16.894531 23.265625 C 16.882812 23.277344 16.871094 23.289062 16.859375 23.300781 C 16.847656 23.3125 16.835938 23.324219 16.820312 23.335938 C 16.847656 23.3125 16.808594 23.34375 16.796875 23.351562 C 16.769531 23.371094 16.738281 23.386719 16.707031 23.398438 C 16.738281 23.386719 16.707031 23.398438 16.695312 23.402344 C 16.679688 23.410156 16.660156 23.414062 16.640625 23.417969 C 16.632812 23.421875 16.621094 23.421875 16.613281 23.425781 C 16.617188 23.425781 16.644531 23.421875 16.625 23.421875 C 16.609375 23.421875 16.59375 23.425781 16.574219 23.425781 C 16.554688 23.425781 16.542969 23.421875 16.523438 23.421875 C 16.503906 23.421875 16.53125 23.421875 16.535156 23.425781 C 16.523438 23.421875 16.511719 23.417969 16.5 23.414062 C 16.484375 23.410156 16.46875 23.40625 16.449219 23.398438 C 16.445312 23.398438 16.421875 23.386719 16.449219 23.398438 C 16.445312 23.398438 16.4375 23.394531 16.429688 23.390625 C 16.414062 23.382812 16.398438 23.375 16.382812 23.363281 C 16.375 23.359375 16.332031 23.328125 16.359375 23.347656 C 16.332031 23.328125 16.304688 23.304688 16.28125 23.277344 C 16.273438 23.269531 16.261719 23.257812 16.253906 23.246094 C 16.230469 23.21875 16.25 23.238281 16.253906 23.246094 C 16.246094 23.238281 16.242188 23.226562 16.234375 23.21875 C 16.214844 23.191406 16.199219 23.160156 16.183594 23.128906 C 16.179688 23.117188 16.160156 23.078125 16.167969 23.09375 C 16.175781 23.113281 16.164062 23.089844 16.164062 23.085938 C 16.160156 23.074219 16.15625 23.0625 16.152344 23.050781 C 16.136719 23.011719 16.125 22.972656 16.117188 22.929688 C 16.117188 22.921875 16.113281 22.914062 16.113281 22.90625 C 16.113281 22.90625 16.105469 22.859375 16.109375 22.882812 C 16.113281 22.90625 16.109375 22.878906 16.109375 22.875 C 16.105469 22.863281 16.105469 22.851562 16.105469 22.835938 C 16.101562 22.796875 16.101562 22.753906 16.105469 22.710938 C 16.105469 22.691406 16.109375 22.671875 16.109375 22.648438 C 16.109375 22.628906 16.109375 22.65625 16.105469 22.660156 C 16.109375 22.644531 16.113281 22.628906 16.117188 22.613281 C 16.132812 22.523438 16.089844 22.417969 15.992188 22.394531 C 15.90625 22.375 15.792969 22.421875 15.773438 22.519531 Z M 15.773438 22.519531 " fill-opacity="1" fill-rule="nonzero"/><path fill="#ffffff" d="M 15.621094 3.3125 C 13.378906 3.101562 12.414062 7.070312 12.882812 9.710938 C 13.136719 11.140625 14.449219 12.183594 15.890625 12 C 19.824219 11.507812 20.535156 3.871094 15.621094 3.3125 Z M 15.621094 3.3125 " fill-opacity="1" fill-rule="nonzero"/><path fill="#1a1a1a" d="M 16.722656 9.785156 C 16.722656 10.027344 16.636719 10.234375 16.46875 10.40625 C 16.296875 10.574219 16.089844 10.660156 15.847656 10.660156 C 15.609375 10.660156 15.402344 10.574219 15.230469 10.40625 C 15.0625 10.234375 14.976562 10.027344 14.976562 9.785156 C 14.976562 9.546875 15.0625 9.339844 15.230469 9.167969 C 15.402344 9 15.609375 8.914062 15.847656 8.914062 C 16.089844 8.914062 16.296875 9 16.46875 9.167969 C 16.636719 9.339844 16.722656 9.546875 16.722656 9.785156 Z M 16.722656 9.785156 " fill-opacity="1" fill-rule="nonzero"/></svg>