<svg xmlns="http://www.w3.org/2000/svg" xmlns:xlink="http://www.w3.org/1999/xlink" width="40" zoomAndPan="magnify" viewBox="0 0 30 30.000001" height="40" preserveAspectRatio="xMidYMid meet" version="1.0"><defs><clipPath id="6583e9a925"><path d="M 7.324219 17 L 13 17 L 13 22 L 7.324219 22 Z M 7.324219 17 " clip-rule="nonzero"/></clipPath><clipPath id="95c5137485"><path d="M 7.324219 16.390625 L 10 16.390625 L 10 19 L 7.324219 19 Z M 7.324219 16.390625 " clip-rule="nonzero"/></clipPath><clipPath id="9b3cc1bb74"><path d="M 10 16.390625 L 13.128906 16.390625 L 13.128906 19 L 10 19 Z M 10 16.390625 " clip-rule="nonzero"/></clipPath><clipPath id="07697f1bc8"><path d="M 7.324219 17 L 10 17 L 10 19 L 7.324219 19 Z M 7.324219 17 " clip-rule="nonzero"/></clipPath><clipPath id="da12e5f2bb"><path d="M 4.929688 4.371094 L 25.253906 4.371094 L 25.253906 24.695312 L 4.929688 24.695312 Z M 4.929688 4.371094 " clip-rule="nonzero"/></clipPath></defs><g clip-path="url(#6583e9a925)"><path fill="#cb6ce6" d="M 12.875 19.535156 C 12.875 19.859375 12.808594 20.171875 12.675781 20.472656 C 12.542969 20.769531 12.355469 21.035156 12.105469 21.265625 C 11.859375 21.492188 11.578125 21.671875 11.253906 21.792969 C 10.933594 21.917969 10.597656 21.980469 10.25 21.980469 C 9.902344 21.980469 9.566406 21.917969 9.242188 21.792969 C 8.921875 21.671875 8.636719 21.492188 8.390625 21.265625 C 8.144531 21.035156 7.957031 20.769531 7.820312 20.472656 C 7.6875 20.171875 7.621094 19.859375 7.621094 19.535156 C 7.621094 19.210938 7.6875 18.898438 7.820312 18.601562 C 7.957031 18.300781 8.144531 18.035156 8.390625 17.808594 C 8.636719 17.578125 8.921875 17.402344 9.242188 17.277344 C 9.566406 17.152344 9.902344 17.089844 10.25 17.089844 C 10.597656 17.089844 10.933594 17.152344 11.253906 17.277344 C 11.578125 17.402344 11.859375 17.578125 12.105469 17.808594 C 12.355469 18.035156 12.542969 18.300781 12.675781 18.601562 C 12.808594 18.898438 12.875 19.210938 12.875 19.535156 Z M 12.875 19.535156 " fill-opacity="1" fill-rule="nonzero"/></g><g clip-path="url(#95c5137485)"><path fill="#cb6ce6" d="M 7.800781 18.695312 C 7.324219 18.03125 7.375 17.175781 7.917969 16.785156 C 8.460938 16.390625 9.289062 16.609375 9.769531 17.273438 " fill-opacity="1" fill-rule="nonzero"/></g><g clip-path="url(#9b3cc1bb74)"><path fill="#cb6ce6" d="M 12.695312 18.695312 C 13.175781 18.03125 13.125 17.175781 12.582031 16.785156 C 12.039062 16.390625 11.210938 16.609375 10.730469 17.273438 " fill-opacity="1" fill-rule="nonzero"/></g><path fill="#e895ff" d="M 12.445312 18.035156 C 12.59375 17.734375 12.46875 17.367188 12.167969 17.214844 C 11.863281 17.066406 11.496094 17.1875 11.347656 17.492188 " fill-opacity="1" fill-rule="nonzero"/><g clip-path="url(#07697f1bc8)"><path fill="#e895ff" d="M 8.054688 18.035156 C 7.90625 17.734375 8.027344 17.367188 8.332031 17.214844 C 8.632812 17.066406 9.003906 17.1875 9.152344 17.492188 " fill-opacity="1" fill-rule="nonzero"/></g><path fill="#e895ff" d="M 11.261719 20.171875 C 11.261719 20.296875 11.234375 20.410156 11.183594 20.523438 C 11.132812 20.636719 11.058594 20.734375 10.964844 20.820312 C 10.871094 20.90625 10.761719 20.972656 10.636719 21.019531 C 10.511719 21.066406 10.382812 21.089844 10.25 21.089844 C 10.113281 21.089844 9.984375 21.066406 9.863281 21.019531 C 9.738281 20.972656 9.628906 20.90625 9.535156 20.820312 C 9.4375 20.734375 9.367188 20.636719 9.316406 20.523438 C 9.261719 20.410156 9.238281 20.296875 9.238281 20.171875 C 9.238281 20.050781 9.261719 19.9375 9.316406 19.824219 C 9.367188 19.710938 9.4375 19.613281 9.535156 19.527344 C 9.628906 19.441406 9.738281 19.375 9.863281 19.328125 C 9.984375 19.28125 10.113281 19.257812 10.25 19.257812 C 10.382812 19.257812 10.511719 19.28125 10.636719 19.328125 C 10.761719 19.375 10.871094 19.441406 10.964844 19.527344 C 11.058594 19.613281 11.132812 19.710938 11.183594 19.824219 C 11.234375 19.9375 11.261719 20.050781 11.261719 20.171875 Z M 11.261719 20.171875 " fill-opacity="1" fill-rule="nonzero"/><path fill="#000000" d="M 10.609375 19.789062 C 10.609375 19.929688 10.449219 20.167969 10.25 20.167969 C 10.050781 20.167969 9.894531 19.929688 9.894531 19.789062 C 9.894531 19.648438 10.054688 19.535156 10.25 19.535156 C 10.449219 19.535156 10.609375 19.648438 10.609375 19.789062 Z M 10.609375 19.789062 " fill-opacity="1" fill-rule="nonzero"/><path fill="#f7f7f7" d="M 10.421875 19.664062 C 10.46875 19.679688 10.488281 19.707031 10.472656 19.75 C 10.457031 19.792969 10.425781 19.804688 10.378906 19.789062 C 10.328125 19.773438 10.3125 19.742188 10.324219 19.699219 C 10.339844 19.660156 10.371094 19.644531 10.421875 19.664062 Z M 10.421875 19.664062 " fill-opacity="1" fill-rule="nonzero"/><path fill="#000000" d="M 10.25 20.507812 C 10.199219 20.507812 10.15625 20.464844 10.15625 20.414062 L 10.15625 20.027344 C 10.15625 19.976562 10.199219 19.933594 10.25 19.933594 C 10.304688 19.933594 10.34375 19.976562 10.34375 20.027344 L 10.34375 20.414062 C 10.34375 20.464844 10.304688 20.507812 10.25 20.507812 Z M 10.25 20.507812 " fill-opacity="1" fill-rule="nonzero"/><path fill="#000000" d="M 10.261719 20.546875 C 10.167969 20.546875 10.007812 20.53125 9.878906 20.429688 C 9.839844 20.394531 9.835938 20.335938 9.867188 20.296875 C 9.898438 20.253906 9.960938 20.25 10 20.28125 C 10.140625 20.394531 10.421875 20.363281 10.496094 20.300781 C 10.535156 20.265625 10.597656 20.269531 10.628906 20.3125 C 10.664062 20.351562 10.660156 20.410156 10.617188 20.445312 C 10.546875 20.503906 10.417969 20.542969 10.277344 20.546875 C 10.269531 20.546875 10.265625 20.546875 10.261719 20.546875 Z M 10.261719 20.546875 " fill-opacity="1" fill-rule="nonzero"/><path fill="#000000" d="M 11.050781 19.21875 C 11.050781 19.347656 10.988281 19.414062 10.855469 19.414062 C 10.726562 19.414062 10.664062 19.347656 10.664062 19.21875 C 10.664062 19.089844 10.726562 19.023438 10.855469 19.023438 C 10.988281 19.023438 11.050781 19.089844 11.050781 19.21875 Z M 11.050781 19.21875 " fill-opacity="1" fill-rule="nonzero"/><path fill="#000000" d="M 9.835938 19.214844 C 9.835938 19.320312 9.75 19.410156 9.644531 19.410156 C 9.539062 19.414062 9.449219 19.328125 9.449219 19.222656 C 9.445312 19.113281 9.53125 19.027344 9.636719 19.023438 C 9.746094 19.023438 9.835938 19.109375 9.835938 19.214844 Z M 9.835938 19.214844 " fill-opacity="1" fill-rule="nonzero"/><path fill="#ffffff" d="M 24.039062 11.160156 C 24.433594 12.398438 24.597656 13.710938 24.519531 15.003906 C 24.511719 15.109375 24.5 15.21875 24.429688 15.292969 C 24.375 15.351562 24.292969 15.375 24.214844 15.394531 C 20.777344 16.320312 17.222656 16.820312 13.664062 16.882812 C 12.523438 16.902344 11.226562 16.8125 10.496094 15.933594 C 9.871094 15.183594 9.875 14.109375 9.90625 13.132812 C 9.925781 12.660156 9.941406 12.1875 9.957031 11.714844 C 9.964844 11.550781 9.972656 11.375 10.070312 11.242188 C 10.222656 11.023438 10.527344 11 10.789062 11 C 12.875 11.003906 14.933594 11.445312 17 11.722656 C 19.066406 11.996094 21.214844 12.101562 23.199219 11.460938 Z M 24.039062 11.160156 " fill-opacity="1" fill-rule="nonzero"/><g clip-path="url(#da12e5f2bb)"><path fill="#5271ff" d="M 5.265625 19.199219 C 5.308594 17 5.355469 14.804688 5.398438 12.605469 C 5.425781 11.167969 5.453125 9.71875 5.761719 8.308594 C 5.941406 7.488281 6.226562 6.660156 6.796875 6.039062 C 7.179688 5.617188 7.675781 5.3125 8.199219 5.082031 C 9.714844 4.414062 11.503906 4.382812 13.042969 4.996094 C 14.054688 5.402344 14.953125 6.066406 15.980469 6.433594 C 18.308594 7.277344 20.898438 6.496094 23.355469 6.789062 C 23.675781 6.828125 24.019531 6.898438 24.238281 7.132812 C 24.429688 7.332031 24.496094 7.621094 24.546875 7.894531 C 24.742188 8.921875 24.84375 9.96875 24.851562 11.019531 C 24.859375 11.550781 24.804688 12.148438 24.398438 12.488281 C 24.128906 12.710938 23.761719 12.765625 23.417969 12.808594 C 19.996094 13.230469 16.523438 13.230469 13.101562 12.8125 C 13.011719 12.800781 12.921875 12.800781 12.835938 12.816406 C 12.347656 12.917969 12.351562 13.382812 12.394531 13.761719 C 12.449219 14.238281 12.554688 14.78125 12.972656 15.015625 C 13.128906 15.101562 13.3125 15.132812 13.492188 15.15625 C 17.03125 15.644531 20.585938 14.386719 24.160156 14.472656 C 24.339844 14.476562 24.539062 14.492188 24.660156 14.625 C 24.75 14.71875 24.777344 14.851562 24.800781 14.980469 C 24.984375 16.003906 25.0625 17.042969 25.035156 18.078125 C 25.027344 18.34375 25 18.628906 24.8125 18.816406 C 24.707031 18.921875 24.5625 18.976562 24.417969 19.027344 C 22.699219 19.613281 20.832031 19.527344 19.023438 19.503906 C 18.871094 19.5 18.71875 19.515625 18.570312 19.558594 C 17.03125 19.988281 18.179688 22.253906 17.050781 22.890625 C 16.878906 22.984375 16.683594 23.019531 16.492188 23.050781 C 13.050781 23.652344 9.589844 24.160156 6.121094 24.570312 C 5.484375 24.648438 4.933594 24.125 4.976562 23.484375 Z M 5.265625 19.199219 " fill-opacity="1" fill-rule="nonzero"/></g><path fill="#004aad" d="M 20.714844 7.628906 C 20.363281 7.769531 20.050781 8.0625 19.972656 8.449219 C 19.894531 8.808594 20.023438 9.195312 20.367188 9.367188 C 20.664062 9.519531 21.039062 9.515625 21.300781 9.289062 C 21.441406 9.167969 21.515625 8.976562 21.515625 8.789062 C 21.515625 8.578125 21.421875 8.386719 21.285156 8.230469 C 20.941406 7.847656 20.382812 7.882812 19.933594 8.007812 C 19.757812 8.054688 19.644531 8.28125 19.753906 8.441406 C 20.003906 8.816406 20.351562 9.085938 20.769531 9.246094 C 20.871094 9.285156 20.988281 9.238281 21.058594 9.171875 C 21.296875 8.949219 21.355469 8.613281 21.292969 8.308594 C 21.238281 8.039062 21.050781 7.761719 20.796875 7.648438 C 20.511719 7.523438 20.15625 7.5625 19.949219 7.8125 C 19.765625 8.035156 19.707031 8.320312 19.753906 8.601562 C 19.777344 8.746094 19.847656 8.878906 19.945312 8.988281 C 20.058594 9.117188 20.226562 9.179688 20.398438 9.191406 C 20.554688 9.199219 20.703125 9.046875 20.695312 8.894531 C 20.6875 8.722656 20.566406 8.605469 20.398438 8.59375 C 20.363281 8.59375 20.363281 8.574219 20.433594 8.601562 C 20.425781 8.597656 20.414062 8.597656 20.402344 8.59375 C 20.394531 8.589844 20.382812 8.585938 20.375 8.585938 C 20.339844 8.578125 20.421875 8.597656 20.417969 8.605469 C 20.417969 8.605469 20.371094 8.578125 20.367188 8.574219 C 20.328125 8.554688 20.429688 8.628906 20.398438 8.597656 C 20.390625 8.59375 20.382812 8.585938 20.378906 8.578125 C 20.371094 8.574219 20.363281 8.566406 20.359375 8.558594 C 20.328125 8.527344 20.40625 8.625 20.378906 8.585938 C 20.371094 8.574219 20.363281 8.558594 20.355469 8.546875 C 20.351562 8.535156 20.347656 8.527344 20.34375 8.519531 C 20.320312 8.476562 20.371094 8.597656 20.355469 8.550781 C 20.351562 8.53125 20.34375 8.515625 20.339844 8.492188 C 20.335938 8.480469 20.320312 8.441406 20.324219 8.433594 C 20.328125 8.425781 20.332031 8.523438 20.332031 8.480469 C 20.332031 8.46875 20.332031 8.457031 20.328125 8.449219 C 20.328125 8.425781 20.328125 8.40625 20.328125 8.382812 C 20.332031 8.351562 20.351562 8.277344 20.324219 8.386719 C 20.335938 8.347656 20.339844 8.3125 20.351562 8.273438 C 20.355469 8.261719 20.359375 8.253906 20.363281 8.242188 C 20.375 8.203125 20.347656 8.289062 20.34375 8.285156 C 20.34375 8.269531 20.371094 8.234375 20.378906 8.21875 C 20.398438 8.1875 20.433594 8.167969 20.367188 8.230469 C 20.382812 8.21875 20.394531 8.199219 20.410156 8.1875 C 20.410156 8.183594 20.429688 8.164062 20.433594 8.167969 C 20.4375 8.167969 20.363281 8.214844 20.394531 8.195312 C 20.414062 8.183594 20.4375 8.171875 20.457031 8.160156 C 20.378906 8.210938 20.40625 8.179688 20.445312 8.171875 C 20.453125 8.167969 20.464844 8.167969 20.476562 8.164062 C 20.40625 8.1875 20.402344 8.171875 20.441406 8.167969 C 20.460938 8.167969 20.484375 8.167969 20.503906 8.167969 C 20.554688 8.171875 20.421875 8.152344 20.472656 8.164062 C 20.488281 8.167969 20.503906 8.171875 20.519531 8.175781 C 20.527344 8.175781 20.535156 8.179688 20.542969 8.183594 C 20.589844 8.195312 20.46875 8.144531 20.515625 8.171875 C 20.535156 8.183594 20.554688 8.191406 20.574219 8.203125 C 20.632812 8.238281 20.519531 8.15625 20.570312 8.203125 C 20.589844 8.21875 20.605469 8.234375 20.621094 8.253906 C 20.632812 8.261719 20.636719 8.269531 20.644531 8.28125 C 20.582031 8.210938 20.613281 8.238281 20.628906 8.257812 C 20.640625 8.277344 20.652344 8.292969 20.664062 8.3125 C 20.675781 8.335938 20.683594 8.355469 20.695312 8.378906 C 20.648438 8.285156 20.6875 8.363281 20.699219 8.390625 C 20.707031 8.421875 20.714844 8.449219 20.71875 8.476562 C 20.71875 8.484375 20.722656 8.492188 20.722656 8.5 C 20.699219 8.402344 20.71875 8.457031 20.71875 8.484375 C 20.722656 8.511719 20.722656 8.539062 20.722656 8.566406 C 20.722656 8.578125 20.71875 8.585938 20.71875 8.597656 C 20.71875 8.648438 20.734375 8.507812 20.722656 8.582031 C 20.71875 8.605469 20.710938 8.628906 20.703125 8.652344 C 20.699219 8.664062 20.695312 8.675781 20.691406 8.6875 C 20.71875 8.59375 20.710938 8.644531 20.695312 8.671875 C 20.683594 8.695312 20.671875 8.714844 20.65625 8.734375 C 20.703125 8.660156 20.691406 8.691406 20.671875 8.710938 C 20.660156 8.726562 20.648438 8.738281 20.636719 8.75 L 20.925781 8.671875 C 20.90625 8.664062 20.832031 8.625 20.910156 8.667969 C 20.894531 8.65625 20.875 8.652344 20.859375 8.644531 C 20.820312 8.625 20.78125 8.605469 20.742188 8.582031 C 20.707031 8.558594 20.667969 8.535156 20.632812 8.511719 C 20.617188 8.5 20.601562 8.492188 20.585938 8.480469 C 20.574219 8.472656 20.566406 8.464844 20.554688 8.457031 C 20.589844 8.484375 20.597656 8.488281 20.578125 8.476562 C 20.515625 8.421875 20.453125 8.363281 20.394531 8.300781 C 20.382812 8.289062 20.316406 8.203125 20.308594 8.203125 C 20.332031 8.234375 20.339844 8.242188 20.324219 8.226562 C 20.320312 8.21875 20.3125 8.210938 20.308594 8.203125 C 20.292969 8.183594 20.28125 8.164062 20.265625 8.140625 L 20.085938 8.578125 C 20.160156 8.558594 20.238281 8.539062 20.3125 8.527344 C 20.328125 8.523438 20.359375 8.511719 20.375 8.515625 L 20.339844 8.519531 C 20.351562 8.519531 20.367188 8.515625 20.378906 8.515625 C 20.421875 8.511719 20.464844 8.511719 20.503906 8.511719 C 20.527344 8.511719 20.546875 8.511719 20.566406 8.511719 L 20.585938 8.511719 C 20.613281 8.515625 20.613281 8.515625 20.589844 8.511719 L 20.570312 8.511719 C 20.582031 8.511719 20.597656 8.515625 20.609375 8.515625 C 20.628906 8.519531 20.652344 8.527344 20.671875 8.53125 C 20.691406 8.535156 20.710938 8.542969 20.730469 8.550781 C 20.78125 8.566406 20.714844 8.542969 20.707031 8.539062 C 20.734375 8.5625 20.777344 8.578125 20.808594 8.597656 C 20.859375 8.628906 20.765625 8.558594 20.792969 8.585938 C 20.804688 8.597656 20.816406 8.605469 20.824219 8.613281 C 20.835938 8.625 20.847656 8.636719 20.859375 8.648438 L 20.871094 8.664062 C 20.890625 8.6875 20.886719 8.679688 20.855469 8.640625 C 20.863281 8.664062 20.886719 8.6875 20.898438 8.710938 C 20.914062 8.742188 20.90625 8.765625 20.894531 8.699219 C 20.898438 8.714844 20.90625 8.730469 20.910156 8.746094 C 20.914062 8.757812 20.917969 8.777344 20.921875 8.792969 C 20.898438 8.734375 20.917969 8.734375 20.917969 8.773438 C 20.917969 8.789062 20.917969 8.804688 20.917969 8.820312 C 20.917969 8.855469 20.898438 8.832031 20.921875 8.789062 C 20.917969 8.800781 20.914062 8.824219 20.910156 8.835938 C 20.898438 8.894531 20.945312 8.769531 20.921875 8.816406 C 20.917969 8.820312 20.914062 8.828125 20.910156 8.835938 C 20.90625 8.84375 20.902344 8.851562 20.898438 8.855469 C 20.878906 8.878906 20.890625 8.871094 20.921875 8.824219 C 20.90625 8.835938 20.890625 8.855469 20.878906 8.867188 C 20.855469 8.890625 20.949219 8.824219 20.90625 8.847656 C 20.894531 8.851562 20.886719 8.859375 20.875 8.863281 C 20.847656 8.882812 20.828125 8.867188 20.90625 8.851562 C 20.898438 8.855469 20.890625 8.859375 20.882812 8.863281 C 20.855469 8.871094 20.832031 8.875 20.804688 8.882812 C 20.90625 8.855469 20.84375 8.878906 20.808594 8.878906 C 20.785156 8.878906 20.761719 8.878906 20.734375 8.875 C 20.710938 8.875 20.6875 8.863281 20.777344 8.882812 C 20.765625 8.878906 20.753906 8.878906 20.738281 8.875 C 20.714844 8.867188 20.691406 8.863281 20.667969 8.855469 C 20.644531 8.847656 20.609375 8.824219 20.691406 8.867188 C 20.679688 8.859375 20.667969 8.855469 20.65625 8.847656 C 20.640625 8.839844 20.621094 8.828125 20.605469 8.816406 C 20.582031 8.800781 20.5625 8.773438 20.625 8.835938 C 20.617188 8.824219 20.605469 8.816406 20.597656 8.808594 C 20.589844 8.804688 20.585938 8.796875 20.578125 8.792969 C 20.558594 8.769531 20.542969 8.726562 20.585938 8.804688 C 20.574219 8.785156 20.5625 8.765625 20.550781 8.746094 C 20.535156 8.71875 20.554688 8.710938 20.5625 8.777344 C 20.5625 8.761719 20.550781 8.746094 20.546875 8.730469 C 20.542969 8.714844 20.542969 8.699219 20.539062 8.683594 C 20.527344 8.632812 20.542969 8.714844 20.542969 8.714844 C 20.527344 8.6875 20.539062 8.636719 20.539062 8.605469 C 20.542969 8.554688 20.535156 8.632812 20.535156 8.636719 C 20.535156 8.617188 20.542969 8.589844 20.550781 8.574219 C 20.558594 8.542969 20.570312 8.511719 20.578125 8.480469 C 20.558594 8.558594 20.5625 8.519531 20.578125 8.492188 C 20.585938 8.472656 20.597656 8.453125 20.609375 8.4375 C 20.617188 8.425781 20.625 8.414062 20.628906 8.402344 C 20.636719 8.394531 20.640625 8.386719 20.644531 8.378906 C 20.664062 8.355469 20.65625 8.363281 20.628906 8.402344 C 20.65625 8.378906 20.675781 8.34375 20.703125 8.320312 C 20.710938 8.308594 20.722656 8.300781 20.730469 8.292969 C 20.742188 8.285156 20.75 8.277344 20.757812 8.269531 C 20.78125 8.25 20.773438 8.253906 20.738281 8.285156 C 20.765625 8.269531 20.792969 8.246094 20.820312 8.230469 C 20.835938 8.222656 20.851562 8.214844 20.863281 8.207031 C 20.9375 8.167969 20.820312 8.222656 20.867188 8.203125 C 20.945312 8.171875 21.003906 8.136719 21.046875 8.066406 C 21.082031 8 21.101562 7.90625 21.078125 7.835938 C 21.03125 7.695312 20.867188 7.566406 20.710938 7.628906 Z M 20.714844 7.628906 " fill-opacity="1" fill-rule="nonzero"/><path fill="#004aad" d="M 13.144531 12.3125 C 13.820312 13.164062 14.519531 14 15.242188 14.8125 C 15.449219 15.042969 15.65625 15.269531 15.863281 15.496094 C 15.90625 15.542969 15.988281 15.53125 16.015625 15.476562 C 16.601562 14.4375 17.261719 13.441406 17.992188 12.5 L 17.839844 12.480469 C 18.398438 13.546875 19.125 14.515625 19.992188 15.347656 C 20.238281 15.585938 20.492188 15.808594 20.757812 16.019531 C 20.804688 16.058594 20.878906 16.058594 20.910156 16 C 21.46875 14.984375 22.078125 13.996094 22.734375 13.046875 C 22.921875 12.773438 23.117188 12.503906 23.3125 12.234375 L 23.144531 12.234375 C 23.644531 13.144531 24.144531 14.050781 24.644531 14.957031 C 24.703125 15.070312 24.875 14.96875 24.8125 14.859375 C 24.3125 13.953125 23.8125 13.046875 23.3125 12.136719 C 23.273438 12.066406 23.183594 12.082031 23.144531 12.136719 C 22.457031 13.070312 21.820312 14.039062 21.234375 15.035156 C 21.066406 15.320312 20.902344 15.609375 20.742188 15.902344 L 20.898438 15.882812 C 19.96875 15.140625 19.160156 14.25 18.515625 13.25 C 18.332031 12.96875 18.164062 12.679688 18.007812 12.382812 C 17.984375 12.332031 17.894531 12.3125 17.855469 12.363281 C 17.113281 13.320312 16.441406 14.328125 15.847656 15.378906 L 16 15.359375 C 15.265625 14.558594 14.550781 13.734375 13.859375 12.890625 C 13.664062 12.65625 13.472656 12.414062 13.28125 12.171875 C 13.203125 12.074219 13.066406 12.214844 13.144531 12.3125 Z M 13.144531 12.3125 " fill-opacity="1" fill-rule="nonzero"/><path fill="#004aad" d="M 5.664062 12.148438 C 5.667969 12.601562 5.886719 13.046875 6.253906 13.3125 C 6.433594 13.445312 6.6875 13.515625 6.882812 13.371094 C 7.046875 13.25 7.113281 13.046875 7.136719 12.855469 C 7.167969 12.628906 7.125 12.347656 7.289062 12.164062 C 7.371094 12.066406 7.234375 11.929688 7.148438 12.023438 C 7.015625 12.175781 6.980469 12.367188 6.964844 12.5625 C 6.953125 12.738281 6.957031 12.917969 6.875 13.078125 C 6.652344 13.515625 6.179688 13.035156 6.035156 12.78125 C 5.921875 12.589844 5.863281 12.371094 5.859375 12.148438 C 5.859375 12.023438 5.664062 12.023438 5.664062 12.148438 Z M 5.664062 12.148438 " fill-opacity="1" fill-rule="nonzero"/><path fill="#004aad" d="M 8.078125 14.140625 C 8.011719 14.550781 8.011719 15.027344 8.371094 15.308594 C 8.515625 15.421875 8.710938 15.484375 8.894531 15.429688 C 9.046875 15.386719 9.175781 15.269531 9.242188 15.128906 C 9.324219 14.960938 9.335938 14.761719 9.238281 14.597656 C 9.175781 14.488281 9.007812 14.585938 9.070312 14.695312 C 9.179688 14.882812 9.070312 15.160156 8.867188 15.234375 C 8.582031 15.34375 8.328125 15.046875 8.265625 14.800781 C 8.214844 14.601562 8.234375 14.390625 8.265625 14.191406 C 8.273438 14.140625 8.25 14.085938 8.195312 14.070312 C 8.148438 14.058594 8.085938 14.085938 8.074219 14.140625 Z M 8.078125 14.140625 " fill-opacity="1" fill-rule="nonzero"/><path fill="#004aad" d="M 6.351562 14.671875 C 6.375 14.945312 6.410156 15.253906 6.617188 15.460938 C 6.777344 15.621094 7.050781 15.652344 7.246094 15.535156 C 7.355469 15.46875 7.425781 15.359375 7.425781 15.230469 C 7.425781 15.101562 7.230469 15.105469 7.230469 15.230469 C 7.230469 15.238281 7.230469 15.25 7.230469 15.257812 C 7.230469 15.238281 7.226562 15.265625 7.226562 15.273438 C 7.226562 15.277344 7.21875 15.296875 7.222656 15.289062 C 7.226562 15.28125 7.214844 15.304688 7.210938 15.308594 C 7.210938 15.3125 7.207031 15.316406 7.203125 15.316406 C 7.195312 15.332031 7.214844 15.308594 7.203125 15.316406 C 7.199219 15.324219 7.191406 15.332031 7.1875 15.335938 C 7.179688 15.34375 7.175781 15.347656 7.167969 15.355469 C 7.160156 15.363281 7.167969 15.351562 7.167969 15.351562 C 7.164062 15.355469 7.15625 15.359375 7.152344 15.363281 C 7.113281 15.390625 7.101562 15.390625 7.054688 15.402344 C 7.046875 15.40625 7.035156 15.40625 7.027344 15.40625 C 7.015625 15.410156 7.027344 15.40625 7.03125 15.40625 C 7.023438 15.40625 7.019531 15.410156 7.015625 15.410156 C 6.992188 15.410156 6.96875 15.410156 6.949219 15.410156 C 6.921875 15.40625 6.875 15.398438 6.847656 15.386719 C 6.8125 15.371094 6.785156 15.351562 6.753906 15.320312 C 6.679688 15.246094 6.636719 15.152344 6.609375 15.050781 C 6.570312 14.929688 6.558594 14.800781 6.546875 14.671875 C 6.542969 14.617188 6.503906 14.574219 6.449219 14.574219 C 6.398438 14.574219 6.347656 14.617188 6.351562 14.671875 Z M 6.351562 14.671875 " fill-opacity="1" fill-rule="nonzero"/><path fill="#004aad" d="M 14.699219 9.109375 C 14.640625 9.375 14.816406 9.648438 15.070312 9.730469 C 15.328125 9.816406 15.574219 9.660156 15.675781 9.429688 C 15.734375 9.292969 15.738281 9.148438 15.679688 9.011719 C 15.660156 8.964844 15.585938 8.953125 15.546875 8.976562 C 15.496094 9.007812 15.492188 9.0625 15.511719 9.109375 C 15.507812 9.097656 15.515625 9.121094 15.515625 9.125 C 15.519531 9.136719 15.523438 9.148438 15.523438 9.160156 C 15.527344 9.164062 15.527344 9.167969 15.527344 9.171875 C 15.527344 9.171875 15.527344 9.160156 15.527344 9.171875 C 15.527344 9.183594 15.527344 9.199219 15.527344 9.210938 C 15.527344 9.222656 15.527344 9.230469 15.527344 9.242188 C 15.527344 9.246094 15.527344 9.25 15.527344 9.257812 C 15.527344 9.253906 15.53125 9.242188 15.527344 9.261719 C 15.519531 9.28125 15.515625 9.304688 15.507812 9.324219 C 15.507812 9.328125 15.5 9.355469 15.503906 9.34375 C 15.5 9.351562 15.496094 9.359375 15.488281 9.371094 C 15.480469 9.390625 15.464844 9.410156 15.453125 9.429688 C 15.441406 9.445312 15.394531 9.492188 15.378906 9.503906 C 15.359375 9.515625 15.339844 9.527344 15.320312 9.535156 C 15.308594 9.542969 15.324219 9.535156 15.308594 9.542969 C 15.296875 9.546875 15.285156 9.550781 15.277344 9.550781 C 15.265625 9.554688 15.253906 9.558594 15.242188 9.558594 C 15.253906 9.558594 15.230469 9.558594 15.222656 9.558594 C 15.214844 9.558594 15.203125 9.558594 15.191406 9.558594 C 15.183594 9.558594 15.175781 9.558594 15.171875 9.558594 C 15.179688 9.558594 15.167969 9.554688 15.164062 9.554688 C 15.082031 9.535156 15.007812 9.492188 14.957031 9.421875 C 14.925781 9.386719 14.90625 9.34375 14.890625 9.296875 C 14.886719 9.285156 14.886719 9.269531 14.882812 9.257812 C 14.882812 9.246094 14.882812 9.253906 14.882812 9.257812 C 14.882812 9.25 14.882812 9.242188 14.882812 9.234375 C 14.882812 9.21875 14.882812 9.207031 14.882812 9.191406 C 14.882812 9.191406 14.882812 9.175781 14.882812 9.183594 C 14.882812 9.1875 14.886719 9.164062 14.886719 9.164062 C 14.898438 9.113281 14.871094 9.058594 14.820312 9.042969 C 14.769531 9.03125 14.710938 9.058594 14.699219 9.113281 Z M 14.699219 9.109375 " fill-opacity="1" fill-rule="nonzero"/><path fill="#004aad" d="M 22.480469 9.636719 C 22.460938 9.894531 22.46875 10.226562 22.734375 10.359375 C 22.851562 10.417969 22.992188 10.429688 23.117188 10.382812 C 23.246094 10.332031 23.34375 10.226562 23.378906 10.089844 C 23.421875 9.941406 23.386719 9.78125 23.285156 9.664062 C 23.25 9.625 23.183594 9.628906 23.148438 9.664062 C 23.109375 9.703125 23.113281 9.761719 23.148438 9.800781 C 23.160156 9.816406 23.152344 9.804688 23.148438 9.800781 C 23.152344 9.804688 23.15625 9.8125 23.15625 9.816406 C 23.164062 9.828125 23.171875 9.839844 23.175781 9.847656 C 23.179688 9.851562 23.183594 9.867188 23.179688 9.855469 C 23.175781 9.847656 23.183594 9.863281 23.183594 9.867188 C 23.1875 9.878906 23.191406 9.890625 23.195312 9.902344 C 23.195312 9.90625 23.199219 9.941406 23.199219 9.917969 C 23.199219 9.933594 23.199219 9.945312 23.199219 9.957031 C 23.199219 9.96875 23.199219 9.980469 23.199219 9.992188 C 23.199219 9.996094 23.199219 10.011719 23.199219 10 C 23.203125 9.988281 23.199219 10.011719 23.199219 10.011719 C 23.195312 10.023438 23.191406 10.035156 23.1875 10.046875 C 23.1875 10.054688 23.183594 10.058594 23.183594 10.066406 C 23.183594 10.070312 23.175781 10.085938 23.179688 10.074219 C 23.183594 10.0625 23.175781 10.078125 23.175781 10.082031 C 23.171875 10.085938 23.171875 10.09375 23.167969 10.097656 C 23.160156 10.109375 23.15625 10.121094 23.148438 10.128906 C 23.15625 10.113281 23.140625 10.136719 23.132812 10.144531 C 23.128906 10.148438 23.125 10.152344 23.117188 10.15625 C 23.117188 10.160156 23.101562 10.171875 23.113281 10.164062 C 23.121094 10.15625 23.105469 10.167969 23.105469 10.167969 C 23.101562 10.171875 23.09375 10.175781 23.089844 10.179688 C 23.078125 10.183594 23.070312 10.191406 23.058594 10.195312 C 23.074219 10.1875 23.042969 10.203125 23.035156 10.203125 C 23.023438 10.207031 23.015625 10.210938 23.003906 10.210938 C 22.996094 10.214844 22.992188 10.214844 22.984375 10.214844 C 22.972656 10.21875 23 10.214844 22.984375 10.214844 C 22.972656 10.214844 22.960938 10.21875 22.945312 10.21875 C 22.933594 10.21875 22.921875 10.214844 22.910156 10.214844 C 22.894531 10.214844 22.921875 10.21875 22.910156 10.214844 C 22.902344 10.214844 22.898438 10.214844 22.890625 10.210938 C 22.878906 10.210938 22.871094 10.207031 22.859375 10.203125 C 22.851562 10.203125 22.847656 10.199219 22.84375 10.199219 C 22.832031 10.195312 22.855469 10.203125 22.835938 10.195312 C 22.824219 10.191406 22.816406 10.183594 22.804688 10.175781 C 22.800781 10.175781 22.792969 10.171875 22.789062 10.167969 C 22.777344 10.160156 22.800781 10.175781 22.789062 10.167969 C 22.78125 10.160156 22.769531 10.152344 22.761719 10.144531 C 22.757812 10.140625 22.753906 10.136719 22.75 10.132812 C 22.746094 10.128906 22.746094 10.125 22.742188 10.121094 C 22.746094 10.128906 22.746094 10.128906 22.742188 10.121094 C 22.726562 10.101562 22.714844 10.082031 22.707031 10.058594 C 22.699219 10.042969 22.710938 10.070312 22.703125 10.054688 C 22.703125 10.050781 22.699219 10.042969 22.699219 10.039062 C 22.691406 10.023438 22.6875 10.007812 22.683594 9.992188 C 22.679688 9.980469 22.675781 9.964844 22.675781 9.953125 C 22.671875 9.945312 22.671875 9.941406 22.671875 9.933594 C 22.667969 9.902344 22.671875 9.953125 22.671875 9.921875 C 22.667969 9.890625 22.664062 9.859375 22.664062 9.828125 C 22.664062 9.765625 22.667969 9.703125 22.671875 9.636719 C 22.675781 9.585938 22.625 9.539062 22.574219 9.539062 C 22.519531 9.542969 22.480469 9.582031 22.476562 9.636719 Z M 22.480469 9.636719 " fill-opacity="1" fill-rule="nonzero"/><path fill="#004aad" d="M 11.277344 16.59375 C 11.238281 16.804688 11.289062 17.054688 11.464844 17.191406 C 11.558594 17.269531 11.667969 17.304688 11.789062 17.285156 C 11.890625 17.265625 11.988281 17.207031 12.050781 17.128906 C 12.132812 17.019531 12.160156 16.894531 12.101562 16.769531 C 12.082031 16.71875 12.011719 16.707031 11.96875 16.734375 C 11.917969 16.761719 11.910156 16.816406 11.933594 16.867188 C 11.925781 16.847656 11.933594 16.867188 11.9375 16.875 C 11.9375 16.886719 11.941406 16.902344 11.9375 16.882812 C 11.941406 16.890625 11.941406 16.898438 11.941406 16.910156 C 11.941406 16.914062 11.941406 16.917969 11.941406 16.921875 C 11.941406 16.9375 11.945312 16.910156 11.941406 16.921875 C 11.9375 16.929688 11.9375 16.9375 11.933594 16.945312 C 11.929688 16.953125 11.925781 16.964844 11.933594 16.949219 C 11.925781 16.96875 11.914062 16.984375 11.90625 17 C 11.898438 17.011719 11.914062 16.988281 11.90625 17 C 11.902344 17 11.898438 17.003906 11.898438 17.007812 C 11.890625 17.015625 11.886719 17.019531 11.878906 17.027344 C 11.871094 17.035156 11.863281 17.039062 11.855469 17.046875 C 11.871094 17.03125 11.851562 17.050781 11.84375 17.054688 C 11.828125 17.066406 11.8125 17.074219 11.792969 17.082031 C 11.808594 17.074219 11.792969 17.082031 11.789062 17.082031 C 11.777344 17.085938 11.769531 17.089844 11.757812 17.089844 C 11.753906 17.09375 11.746094 17.09375 11.742188 17.09375 C 11.742188 17.09375 11.757812 17.09375 11.75 17.09375 C 11.738281 17.09375 11.730469 17.09375 11.71875 17.09375 C 11.710938 17.09375 11.703125 17.09375 11.691406 17.09375 C 11.679688 17.09375 11.695312 17.09375 11.699219 17.09375 C 11.691406 17.09375 11.6875 17.09375 11.679688 17.089844 C 11.671875 17.085938 11.660156 17.085938 11.652344 17.082031 C 11.648438 17.082031 11.636719 17.074219 11.652344 17.082031 C 11.648438 17.078125 11.644531 17.078125 11.640625 17.078125 C 11.632812 17.070312 11.625 17.066406 11.617188 17.0625 C 11.609375 17.058594 11.585938 17.042969 11.601562 17.054688 C 11.585938 17.042969 11.574219 17.027344 11.558594 17.015625 C 11.554688 17.007812 11.546875 17.003906 11.542969 16.996094 C 11.53125 16.980469 11.542969 16.992188 11.542969 16.996094 C 11.539062 16.992188 11.535156 16.988281 11.535156 16.980469 C 11.523438 16.964844 11.511719 16.949219 11.503906 16.929688 C 11.5 16.925781 11.492188 16.90625 11.496094 16.914062 C 11.5 16.921875 11.492188 16.910156 11.492188 16.910156 C 11.492188 16.902344 11.488281 16.894531 11.488281 16.886719 C 11.480469 16.867188 11.472656 16.84375 11.46875 16.820312 C 11.46875 16.816406 11.464844 16.8125 11.464844 16.808594 C 11.464844 16.808594 11.460938 16.78125 11.464844 16.796875 C 11.464844 16.808594 11.464844 16.792969 11.464844 16.792969 C 11.460938 16.785156 11.460938 16.777344 11.460938 16.769531 C 11.460938 16.75 11.460938 16.726562 11.460938 16.703125 C 11.460938 16.691406 11.464844 16.679688 11.464844 16.667969 C 11.464844 16.65625 11.464844 16.671875 11.460938 16.671875 C 11.464844 16.664062 11.464844 16.65625 11.46875 16.648438 C 11.476562 16.597656 11.453125 16.539062 11.398438 16.527344 C 11.351562 16.515625 11.289062 16.539062 11.277344 16.59375 Z M 11.277344 16.59375 " fill-opacity="1" fill-rule="nonzero"/><path fill="#ffffff" d="M 11.191406 5.988281 C 9.957031 5.871094 9.421875 8.0625 9.683594 9.519531 C 9.824219 10.3125 10.546875 10.886719 11.34375 10.785156 C 13.515625 10.511719 13.910156 6.296875 11.191406 5.988281 Z M 11.191406 5.988281 " fill-opacity="1" fill-rule="nonzero"/><path fill="#1a1a1a" d="M 11.800781 9.5625 C 11.800781 9.695312 11.753906 9.808594 11.660156 9.90625 C 11.566406 10 11.453125 10.046875 11.320312 10.046875 C 11.1875 10.046875 11.074219 10 10.980469 9.90625 C 10.882812 9.808594 10.835938 9.695312 10.835938 9.5625 C 10.835938 9.429688 10.882812 9.316406 10.980469 9.222656 C 11.074219 9.128906 11.1875 9.082031 11.320312 9.082031 C 11.453125 9.082031 11.566406 9.128906 11.660156 9.222656 C 11.753906 9.316406 11.800781 9.429688 11.800781 9.5625 Z M 11.800781 9.5625 " fill-opacity="1" fill-rule="nonzero"/></svg>